G04 EAGLE Gerber RS-274X export*
G75*
%MOMM*%
%FSLAX34Y34*%
%LPD*%
%INTop Copper*%
%IPPOS*%
%AMOC8*
5,1,8,0,0,1.08239X$1,22.5*%
G01*
%ADD10C,1.930400*%
%ADD11C,1.400000*%
%ADD12C,1.879600*%
%ADD13C,0.152400*%


D10*
X-419100Y571500D03*
X-419100Y596900D03*
X-419100Y622300D03*
X-419100Y647700D03*
X-419100Y673100D03*
X-419100Y698500D03*
X-419100Y723900D03*
X-419100Y749300D03*
X-419100Y800100D03*
X-419100Y825500D03*
X-419100Y850900D03*
X-419100Y876300D03*
X-419100Y901700D03*
X-419100Y927100D03*
X-901700Y927100D03*
X-901700Y901700D03*
X-901700Y876300D03*
X-901700Y850900D03*
X-901700Y825500D03*
X-901700Y800100D03*
X-901700Y774700D03*
X-901700Y749300D03*
X-901700Y708660D03*
X-901700Y683260D03*
X-901700Y657860D03*
X-901700Y632460D03*
X-901700Y607060D03*
X-901700Y581660D03*
X-901700Y556260D03*
X-901700Y530860D03*
X-901700Y505460D03*
X-901700Y480060D03*
X-698000Y928500D03*
X-698000Y953900D03*
X-672600Y928500D03*
X-672600Y953900D03*
X-647200Y928500D03*
X-647200Y953900D03*
D11*
X-254400Y1167600D03*
X-304400Y1167600D03*
D12*
X-469900Y1066800D03*
X-469900Y1143000D03*
X-266700Y749300D03*
X-254000Y730250D03*
X-241300Y749300D03*
D13*
X-304400Y1167600D02*
X-444900Y1168000D01*
X-469900Y1143000D01*
X-419100Y673100D02*
X-266700Y673100D01*
X-228600Y711200D01*
X-241300Y749300D01*
X-127000Y901700D01*
X-127000Y1117600D01*
X-177000Y1167600D02*
X-254400Y1167600D01*
X-177000Y1167600D02*
X-127000Y1117600D01*
X-368300Y965200D02*
X-469900Y1066800D01*
X-368300Y965200D02*
X-368300Y825500D01*
X-419100Y825500D01*
X-508000Y1028700D02*
X-469900Y1066800D01*
X-571500Y1028700D02*
X-647700Y952500D01*
X-571500Y1028700D02*
X-508000Y1028700D01*
X-260350Y800100D02*
X-254000Y730250D01*
X-260350Y800100D02*
X-419100Y800100D01*
X-368300Y749300D02*
X-419100Y698500D01*
X-368300Y749300D02*
X-266700Y749300D01*
M02*
