M48
;GenerationSoftware,Autodesk,EAGLE,9.6.2*%
;CreationDate,2023-03-26T01:45:25Z*%
FMAT,2
ICI,OFF
METRIC,TZ,000.000
T7C0.350
T6C0.700
T5C0.813
T4C0.900
T3C1.016
T2C2.800
T1C3.175
%
G90
M71
T1
X2540Y22860
X17780Y73660
X45720Y73660
X50800Y21590
T2
X123450Y88300
X92450Y13300
X123450Y13300
X92450Y88300
T3
X50800Y35560
X50800Y60960
X50800Y38100
X50800Y40640
X50800Y43180
X50800Y45720
X50800Y48260
X50800Y50800
X50800Y53340
X50800Y58420
X67295Y83820
X50800Y63500
X50800Y66040
X50800Y68580
X50800Y71120
X2540Y71120
X2540Y68580
X2540Y66040
X2540Y63500
X2540Y60960
X2540Y58420
X2540Y55880
X2540Y53340
X2540Y49276
X2540Y46736
X2540Y44196
X2540Y41656
X2540Y39116
X2540Y36576
X2540Y34036
X2540Y31496
X2540Y28956
X2540Y26416
X22910Y71260
X22910Y73800
X25450Y71260
X25450Y73800
X27990Y71260
X27990Y73800
X92450Y18800
X92450Y21340
X92450Y23880
X92450Y26420
X92450Y28960
X92450Y31500
X92450Y34040
X92450Y36580
X92450Y39120
X92450Y41660
X92450Y44200
X92450Y46740
X92450Y49280
X92450Y51820
X92450Y54360
X92450Y56900
X67295Y81280
X67295Y86360
T4
X54610Y86360
X80010Y57150
X87630Y57150
X54610Y78740
T5
X81280Y72390
X80010Y74295
X78740Y72390
T6
X39290Y86320
X39290Y81320
T7
X79096Y50749
M30