G04 EAGLE Gerber RS-274X export*
G75*
%MOMM*%
%FSLAX34Y34*%
%LPD*%
%INBottom Copper*%
%IPPOS*%
%AMOC8*
5,1,8,0,0,1.08239X$1,22.5*%
G01*
%ADD10C,1.930400*%
%ADD11R,1.879600X1.879600*%
%ADD12C,1.879600*%
%ADD13C,1.400000*%
%ADD14C,0.152400*%
%ADD15C,0.756400*%


D10*
X508000Y355600D03*
X508000Y381000D03*
X508000Y406400D03*
X508000Y431800D03*
X508000Y457200D03*
X508000Y482600D03*
X508000Y508000D03*
X508000Y533400D03*
X508000Y584200D03*
X508000Y609600D03*
X508000Y635000D03*
X508000Y660400D03*
X508000Y685800D03*
X508000Y711200D03*
X25400Y711200D03*
X25400Y685800D03*
X25400Y660400D03*
X25400Y635000D03*
X25400Y609600D03*
X25400Y584200D03*
X25400Y558800D03*
X25400Y533400D03*
X25400Y492760D03*
X25400Y467360D03*
X25400Y441960D03*
X25400Y416560D03*
X25400Y391160D03*
X25400Y365760D03*
X25400Y340360D03*
X25400Y314960D03*
X25400Y289560D03*
X25400Y264160D03*
X229100Y712600D03*
X229100Y738000D03*
X254500Y712600D03*
X254500Y738000D03*
X279900Y712600D03*
X279900Y738000D03*
D11*
X924500Y188000D03*
D12*
X924500Y213400D03*
X924500Y238800D03*
X924500Y264200D03*
X924500Y289600D03*
X924500Y315000D03*
X924500Y340400D03*
X924500Y365800D03*
X924500Y391200D03*
X924500Y416600D03*
X924500Y442000D03*
X924500Y467400D03*
X924500Y492800D03*
X924500Y518200D03*
X924500Y543600D03*
X924500Y569000D03*
D13*
X392900Y813200D03*
X392900Y863200D03*
D12*
X546100Y787400D03*
X546100Y863600D03*
X800100Y571500D03*
X876300Y571500D03*
X812800Y723900D03*
X800100Y742950D03*
X787400Y723900D03*
D11*
X672950Y863600D03*
D12*
X672950Y838200D03*
X672950Y812800D03*
D14*
X786384Y723900D02*
X787400Y723900D01*
X787908Y507492D02*
X790956Y507492D01*
D15*
X790956Y507492D03*
D14*
X793750Y508000D02*
X800100Y514350D01*
X800100Y571500D01*
X793750Y342900D02*
X920750Y215900D01*
X793750Y457200D02*
X793750Y508000D01*
X793750Y457200D02*
X793750Y342900D01*
X920750Y215900D02*
X924500Y213400D01*
X793750Y508000D02*
X790956Y507492D01*
X793750Y457200D02*
X508000Y457200D01*
X787400Y723900D02*
X800100Y711200D01*
X800100Y571500D01*
X965200Y247650D02*
X965200Y227135D01*
X965200Y247650D02*
X927100Y285750D01*
X965200Y227135D02*
X924500Y188000D01*
X927100Y285750D02*
X924500Y289600D01*
X920750Y571500D02*
X812800Y679450D01*
X920750Y571500D02*
X996950Y495300D01*
X812800Y679450D02*
X812800Y723900D01*
X920750Y571500D02*
X924500Y569000D01*
X812800Y863600D02*
X749300Y863600D01*
X672950Y863600D01*
X812800Y863600D02*
X812800Y723900D01*
X749300Y749300D02*
X508000Y508000D01*
X749300Y749300D02*
X749300Y863600D01*
X996950Y495300D02*
X996950Y362050D01*
X924500Y289600D01*
X672950Y863600D02*
X546100Y863600D01*
X667512Y838200D02*
X672950Y838200D01*
M02*
