G04 EAGLE Gerber RS-274X export*
G75*
%MOMM*%
%FSLAX34Y34*%
%LPD*%
%INTop Copper*%
%IPPOS*%
%AMOC8*
5,1,8,0,0,1.08239X$1,22.5*%
G01*
%ADD10C,1.930400*%
%ADD11R,1.879600X1.879600*%
%ADD12C,1.879600*%
%ADD13C,1.400000*%
%ADD14C,0.152400*%
%ADD15C,0.756400*%


D10*
X508000Y355600D03*
X508000Y381000D03*
X508000Y406400D03*
X508000Y431800D03*
X508000Y457200D03*
X508000Y482600D03*
X508000Y508000D03*
X508000Y533400D03*
X508000Y584200D03*
X508000Y609600D03*
X508000Y635000D03*
X508000Y660400D03*
X508000Y685800D03*
X508000Y711200D03*
X25400Y711200D03*
X25400Y685800D03*
X25400Y660400D03*
X25400Y635000D03*
X25400Y609600D03*
X25400Y584200D03*
X25400Y558800D03*
X25400Y533400D03*
X25400Y492760D03*
X25400Y467360D03*
X25400Y441960D03*
X25400Y416560D03*
X25400Y391160D03*
X25400Y365760D03*
X25400Y340360D03*
X25400Y314960D03*
X25400Y289560D03*
X25400Y264160D03*
X229100Y712600D03*
X229100Y738000D03*
X254500Y712600D03*
X254500Y738000D03*
X279900Y712600D03*
X279900Y738000D03*
D11*
X924500Y188000D03*
D12*
X924500Y213400D03*
X924500Y238800D03*
X924500Y264200D03*
X924500Y289600D03*
X924500Y315000D03*
X924500Y340400D03*
X924500Y365800D03*
X924500Y391200D03*
X924500Y416600D03*
X924500Y442000D03*
X924500Y467400D03*
X924500Y492800D03*
X924500Y518200D03*
X924500Y543600D03*
X924500Y569000D03*
D13*
X392900Y813200D03*
X392900Y863200D03*
D12*
X546100Y787400D03*
X546100Y863600D03*
X800100Y571500D03*
X876300Y571500D03*
X812800Y723900D03*
X800100Y742950D03*
X787400Y723900D03*
D11*
X672950Y863600D03*
D12*
X672950Y838200D03*
X672950Y812800D03*
D14*
X546100Y787400D02*
X546100Y609600D01*
X508000Y609600D01*
D15*
X790956Y507492D03*
D14*
X672950Y812800D02*
X660250Y825500D01*
X405200Y825500D01*
X392900Y813200D01*
X698500Y812800D02*
X787400Y723900D01*
X698500Y812800D02*
X672950Y812800D01*
X800100Y742950D02*
X800100Y584200D01*
X508000Y584200D01*
X546100Y863600D02*
X545592Y864108D01*
X546100Y863600D02*
X393700Y863600D01*
X392900Y863200D01*
X927100Y241300D02*
X1066800Y381000D01*
X1066800Y838200D01*
X672950Y838200D01*
X927100Y241300D02*
X924500Y238800D01*
X901700Y546100D02*
X876300Y571500D01*
X901700Y546100D02*
X920750Y546100D01*
X924500Y543600D01*
X920750Y520700D02*
X38100Y520700D01*
X25400Y533400D01*
X920750Y520700D02*
X924500Y518200D01*
X793750Y393700D02*
X920750Y266700D01*
X793750Y393700D02*
X25400Y393700D01*
X920750Y266700D02*
X924500Y264200D01*
X25400Y391160D02*
X25400Y393700D01*
X819150Y419100D02*
X920750Y317500D01*
X819150Y419100D02*
X25400Y419100D01*
X920750Y317500D02*
X924500Y315000D01*
X25400Y416560D02*
X25400Y419100D01*
X25400Y495300D02*
X920750Y495300D01*
X924500Y492800D01*
X25400Y492760D02*
X25400Y495300D01*
X25400Y469900D02*
X920750Y469900D01*
X924500Y467400D01*
X25400Y467360D02*
X25400Y469900D01*
X25400Y444500D02*
X920750Y444500D01*
X924500Y442000D01*
X25400Y441960D02*
X25400Y444500D01*
M02*
