G04 EAGLE Gerber RS-274X export*
G75*
%MOMM*%
%FSLAX34Y34*%
%LPD*%
%IN*%
%IPPOS*%
%AMOC8*
5,1,8,0,0,1.08239X$1,22.5*%
G01*
%ADD10C,0.254000*%


D10*
X-190500Y-101600D02*
X1368300Y-101600D01*
X1368300Y1041300D01*
X-190500Y1041300D01*
X-190500Y-101600D01*
X25920Y244475D02*
X26957Y244407D01*
X27987Y244271D01*
X29007Y244069D01*
X30011Y243800D01*
X30995Y243465D01*
X31955Y243068D01*
X32887Y242608D01*
X33788Y242088D01*
X34652Y241511D01*
X35476Y240878D01*
X36258Y240193D01*
X36993Y239458D01*
X37678Y238676D01*
X38311Y237852D01*
X38888Y236988D01*
X39408Y236087D01*
X39868Y235155D01*
X40265Y234195D01*
X40600Y233211D01*
X40869Y232207D01*
X41071Y231187D01*
X41207Y230157D01*
X41275Y229120D01*
X41275Y228080D01*
X41207Y227043D01*
X41071Y226013D01*
X40869Y224993D01*
X40600Y223989D01*
X40265Y223005D01*
X39868Y222045D01*
X39408Y221113D01*
X38888Y220212D01*
X38311Y219348D01*
X37678Y218524D01*
X36993Y217742D01*
X36258Y217007D01*
X35476Y216322D01*
X34652Y215689D01*
X33788Y215112D01*
X32887Y214592D01*
X31955Y214132D01*
X30995Y213735D01*
X30011Y213400D01*
X29007Y213131D01*
X27987Y212929D01*
X26957Y212793D01*
X25920Y212725D01*
X24880Y212725D01*
X23843Y212793D01*
X22813Y212929D01*
X21793Y213131D01*
X20789Y213400D01*
X19805Y213735D01*
X18845Y214132D01*
X17913Y214592D01*
X17012Y215112D01*
X16148Y215689D01*
X15324Y216322D01*
X14542Y217007D01*
X13807Y217742D01*
X13122Y218524D01*
X12489Y219348D01*
X11912Y220212D01*
X11392Y221113D01*
X10932Y222045D01*
X10535Y223005D01*
X10200Y223989D01*
X9931Y224993D01*
X9729Y226013D01*
X9593Y227043D01*
X9525Y228080D01*
X9525Y229120D01*
X9593Y230157D01*
X9729Y231187D01*
X9931Y232207D01*
X10200Y233211D01*
X10535Y234195D01*
X10932Y235155D01*
X11392Y236087D01*
X11912Y236988D01*
X12489Y237852D01*
X13122Y238676D01*
X13807Y239458D01*
X14542Y240193D01*
X15324Y240878D01*
X16148Y241511D01*
X17012Y242088D01*
X17913Y242608D01*
X18845Y243068D01*
X19805Y243465D01*
X20789Y243800D01*
X21793Y244069D01*
X22813Y244271D01*
X23843Y244407D01*
X24880Y244475D01*
X25920Y244475D01*
X178320Y752475D02*
X179357Y752407D01*
X180387Y752271D01*
X181407Y752069D01*
X182411Y751800D01*
X183395Y751465D01*
X184355Y751068D01*
X185287Y750608D01*
X186188Y750088D01*
X187052Y749511D01*
X187876Y748878D01*
X188658Y748193D01*
X189393Y747458D01*
X190078Y746676D01*
X190711Y745852D01*
X191288Y744988D01*
X191808Y744087D01*
X192268Y743155D01*
X192665Y742195D01*
X193000Y741211D01*
X193269Y740207D01*
X193471Y739187D01*
X193607Y738157D01*
X193675Y737120D01*
X193675Y736080D01*
X193607Y735043D01*
X193471Y734013D01*
X193269Y732993D01*
X193000Y731989D01*
X192665Y731005D01*
X192268Y730045D01*
X191808Y729113D01*
X191288Y728212D01*
X190711Y727348D01*
X190078Y726524D01*
X189393Y725742D01*
X188658Y725007D01*
X187876Y724322D01*
X187052Y723689D01*
X186188Y723112D01*
X185287Y722592D01*
X184355Y722132D01*
X183395Y721735D01*
X182411Y721400D01*
X181407Y721131D01*
X180387Y720929D01*
X179357Y720793D01*
X178320Y720725D01*
X177280Y720725D01*
X176243Y720793D01*
X175213Y720929D01*
X174193Y721131D01*
X173189Y721400D01*
X172205Y721735D01*
X171245Y722132D01*
X170313Y722592D01*
X169412Y723112D01*
X168548Y723689D01*
X167724Y724322D01*
X166942Y725007D01*
X166207Y725742D01*
X165522Y726524D01*
X164889Y727348D01*
X164312Y728212D01*
X163792Y729113D01*
X163332Y730045D01*
X162935Y731005D01*
X162600Y731989D01*
X162331Y732993D01*
X162129Y734013D01*
X161993Y735043D01*
X161925Y736080D01*
X161925Y737120D01*
X161993Y738157D01*
X162129Y739187D01*
X162331Y740207D01*
X162600Y741211D01*
X162935Y742195D01*
X163332Y743155D01*
X163792Y744087D01*
X164312Y744988D01*
X164889Y745852D01*
X165522Y746676D01*
X166207Y747458D01*
X166942Y748193D01*
X167724Y748878D01*
X168548Y749511D01*
X169412Y750088D01*
X170313Y750608D01*
X171245Y751068D01*
X172205Y751465D01*
X173189Y751800D01*
X174193Y752069D01*
X175213Y752271D01*
X176243Y752407D01*
X177280Y752475D01*
X178320Y752475D01*
X457720Y752475D02*
X458757Y752407D01*
X459787Y752271D01*
X460807Y752069D01*
X461811Y751800D01*
X462795Y751465D01*
X463755Y751068D01*
X464687Y750608D01*
X465588Y750088D01*
X466452Y749511D01*
X467276Y748878D01*
X468058Y748193D01*
X468793Y747458D01*
X469478Y746676D01*
X470111Y745852D01*
X470688Y744988D01*
X471208Y744087D01*
X471668Y743155D01*
X472065Y742195D01*
X472400Y741211D01*
X472669Y740207D01*
X472871Y739187D01*
X473007Y738157D01*
X473075Y737120D01*
X473075Y736080D01*
X473007Y735043D01*
X472871Y734013D01*
X472669Y732993D01*
X472400Y731989D01*
X472065Y731005D01*
X471668Y730045D01*
X471208Y729113D01*
X470688Y728212D01*
X470111Y727348D01*
X469478Y726524D01*
X468793Y725742D01*
X468058Y725007D01*
X467276Y724322D01*
X466452Y723689D01*
X465588Y723112D01*
X464687Y722592D01*
X463755Y722132D01*
X462795Y721735D01*
X461811Y721400D01*
X460807Y721131D01*
X459787Y720929D01*
X458757Y720793D01*
X457720Y720725D01*
X456680Y720725D01*
X455643Y720793D01*
X454613Y720929D01*
X453593Y721131D01*
X452589Y721400D01*
X451605Y721735D01*
X450645Y722132D01*
X449713Y722592D01*
X448812Y723112D01*
X447948Y723689D01*
X447124Y724322D01*
X446342Y725007D01*
X445607Y725742D01*
X444922Y726524D01*
X444289Y727348D01*
X443712Y728212D01*
X443192Y729113D01*
X442732Y730045D01*
X442335Y731005D01*
X442000Y731989D01*
X441731Y732993D01*
X441529Y734013D01*
X441393Y735043D01*
X441325Y736080D01*
X441325Y737120D01*
X441393Y738157D01*
X441529Y739187D01*
X441731Y740207D01*
X442000Y741211D01*
X442335Y742195D01*
X442732Y743155D01*
X443192Y744087D01*
X443712Y744988D01*
X444289Y745852D01*
X444922Y746676D01*
X445607Y747458D01*
X446342Y748193D01*
X447124Y748878D01*
X447948Y749511D01*
X448812Y750088D01*
X449713Y750608D01*
X450645Y751068D01*
X451605Y751465D01*
X452589Y751800D01*
X453593Y752069D01*
X454613Y752271D01*
X455643Y752407D01*
X456680Y752475D01*
X457720Y752475D01*
X508520Y231775D02*
X509557Y231707D01*
X510587Y231571D01*
X511607Y231369D01*
X512611Y231100D01*
X513595Y230765D01*
X514555Y230368D01*
X515487Y229908D01*
X516388Y229388D01*
X517252Y228811D01*
X518076Y228178D01*
X518858Y227493D01*
X519593Y226758D01*
X520278Y225976D01*
X520911Y225152D01*
X521488Y224288D01*
X522008Y223387D01*
X522468Y222455D01*
X522865Y221495D01*
X523200Y220511D01*
X523469Y219507D01*
X523671Y218487D01*
X523807Y217457D01*
X523875Y216420D01*
X523875Y215380D01*
X523807Y214343D01*
X523671Y213313D01*
X523469Y212293D01*
X523200Y211289D01*
X522865Y210305D01*
X522468Y209345D01*
X522008Y208413D01*
X521488Y207512D01*
X520911Y206648D01*
X520278Y205824D01*
X519593Y205042D01*
X518858Y204307D01*
X518076Y203622D01*
X517252Y202989D01*
X516388Y202412D01*
X515487Y201892D01*
X514555Y201432D01*
X513595Y201035D01*
X512611Y200700D01*
X511607Y200431D01*
X510587Y200229D01*
X509557Y200093D01*
X508520Y200025D01*
X507480Y200025D01*
X506443Y200093D01*
X505413Y200229D01*
X504393Y200431D01*
X503389Y200700D01*
X502405Y201035D01*
X501445Y201432D01*
X500513Y201892D01*
X499612Y202412D01*
X498748Y202989D01*
X497924Y203622D01*
X497142Y204307D01*
X496407Y205042D01*
X495722Y205824D01*
X495089Y206648D01*
X494512Y207512D01*
X493992Y208413D01*
X493532Y209345D01*
X493135Y210305D01*
X492800Y211289D01*
X492531Y212293D01*
X492329Y213313D01*
X492193Y214343D01*
X492125Y215380D01*
X492125Y216420D01*
X492193Y217457D01*
X492329Y218487D01*
X492531Y219507D01*
X492800Y220511D01*
X493135Y221495D01*
X493532Y222455D01*
X493992Y223387D01*
X494512Y224288D01*
X495089Y225152D01*
X495722Y225976D01*
X496407Y226758D01*
X497142Y227493D01*
X497924Y228178D01*
X498748Y228811D01*
X499612Y229388D01*
X500513Y229908D01*
X501445Y230368D01*
X502405Y230765D01*
X503389Y231100D01*
X504393Y231369D01*
X505413Y231571D01*
X506443Y231707D01*
X507480Y231775D01*
X508520Y231775D01*
X925000Y147000D02*
X925998Y146929D01*
X926987Y146786D01*
X927965Y146574D01*
X928924Y146292D01*
X929861Y145943D01*
X930771Y145527D01*
X931648Y145048D01*
X932490Y144507D01*
X933290Y143908D01*
X934046Y143253D01*
X934753Y142546D01*
X935408Y141790D01*
X936007Y140990D01*
X936548Y140148D01*
X937027Y139271D01*
X937443Y138361D01*
X937792Y137424D01*
X938074Y136465D01*
X938286Y135487D01*
X938429Y134498D01*
X938500Y133500D01*
X938500Y132500D01*
X938429Y131503D01*
X938286Y130513D01*
X938074Y129536D01*
X937792Y128576D01*
X937443Y127639D01*
X937027Y126729D01*
X936548Y125852D01*
X936007Y125010D01*
X935408Y124210D01*
X934753Y123454D01*
X934046Y122747D01*
X933290Y122092D01*
X932490Y121493D01*
X931648Y120952D01*
X930771Y120473D01*
X929861Y120057D01*
X928924Y119708D01*
X927965Y119426D01*
X926987Y119214D01*
X925998Y119071D01*
X925000Y119000D01*
X924000Y119000D01*
X923003Y119071D01*
X922013Y119214D01*
X921036Y119426D01*
X920076Y119708D01*
X919139Y120057D01*
X918229Y120473D01*
X917352Y120952D01*
X916510Y121493D01*
X915710Y122092D01*
X914954Y122747D01*
X914247Y123454D01*
X913592Y124210D01*
X912993Y125010D01*
X912452Y125852D01*
X911973Y126729D01*
X911557Y127639D01*
X911208Y128576D01*
X910926Y129536D01*
X910714Y130513D01*
X910571Y131503D01*
X910500Y132500D01*
X910500Y133500D01*
X910571Y134498D01*
X910714Y135487D01*
X910926Y136465D01*
X911208Y137424D01*
X911557Y138361D01*
X911973Y139271D01*
X912452Y140148D01*
X912993Y140990D01*
X913592Y141790D01*
X914247Y142546D01*
X914954Y143253D01*
X915710Y143908D01*
X916510Y144507D01*
X917352Y145048D01*
X918229Y145527D01*
X919139Y145943D01*
X920076Y146292D01*
X921036Y146574D01*
X922013Y146786D01*
X923003Y146929D01*
X924000Y147000D01*
X925000Y147000D01*
X1235000Y147000D02*
X1235998Y146929D01*
X1236987Y146786D01*
X1237965Y146574D01*
X1238924Y146292D01*
X1239861Y145943D01*
X1240771Y145527D01*
X1241648Y145048D01*
X1242490Y144507D01*
X1243290Y143908D01*
X1244046Y143253D01*
X1244753Y142546D01*
X1245408Y141790D01*
X1246007Y140990D01*
X1246548Y140148D01*
X1247027Y139271D01*
X1247443Y138361D01*
X1247792Y137424D01*
X1248074Y136465D01*
X1248286Y135487D01*
X1248429Y134498D01*
X1248500Y133500D01*
X1248500Y132500D01*
X1248429Y131503D01*
X1248286Y130513D01*
X1248074Y129536D01*
X1247792Y128576D01*
X1247443Y127639D01*
X1247027Y126729D01*
X1246548Y125852D01*
X1246007Y125010D01*
X1245408Y124210D01*
X1244753Y123454D01*
X1244046Y122747D01*
X1243290Y122092D01*
X1242490Y121493D01*
X1241648Y120952D01*
X1240771Y120473D01*
X1239861Y120057D01*
X1238924Y119708D01*
X1237965Y119426D01*
X1236987Y119214D01*
X1235998Y119071D01*
X1235000Y119000D01*
X1234000Y119000D01*
X1233003Y119071D01*
X1232013Y119214D01*
X1231036Y119426D01*
X1230076Y119708D01*
X1229139Y120057D01*
X1228229Y120473D01*
X1227352Y120952D01*
X1226510Y121493D01*
X1225710Y122092D01*
X1224954Y122747D01*
X1224247Y123454D01*
X1223592Y124210D01*
X1222993Y125010D01*
X1222452Y125852D01*
X1221973Y126729D01*
X1221557Y127639D01*
X1221208Y128576D01*
X1220926Y129536D01*
X1220714Y130513D01*
X1220571Y131503D01*
X1220500Y132500D01*
X1220500Y133500D01*
X1220571Y134498D01*
X1220714Y135487D01*
X1220926Y136465D01*
X1221208Y137424D01*
X1221557Y138361D01*
X1221973Y139271D01*
X1222452Y140148D01*
X1222993Y140990D01*
X1223592Y141790D01*
X1224247Y142546D01*
X1224954Y143253D01*
X1225710Y143908D01*
X1226510Y144507D01*
X1227352Y145048D01*
X1228229Y145527D01*
X1229139Y145943D01*
X1230076Y146292D01*
X1231036Y146574D01*
X1232013Y146786D01*
X1233003Y146929D01*
X1234000Y147000D01*
X1235000Y147000D01*
X925000Y897000D02*
X925998Y896929D01*
X926987Y896786D01*
X927965Y896574D01*
X928924Y896292D01*
X929861Y895943D01*
X930771Y895527D01*
X931648Y895048D01*
X932490Y894507D01*
X933290Y893908D01*
X934046Y893253D01*
X934753Y892546D01*
X935408Y891790D01*
X936007Y890990D01*
X936548Y890148D01*
X937027Y889271D01*
X937443Y888361D01*
X937792Y887424D01*
X938074Y886465D01*
X938286Y885487D01*
X938429Y884498D01*
X938500Y883500D01*
X938500Y882500D01*
X938429Y881503D01*
X938286Y880513D01*
X938074Y879536D01*
X937792Y878576D01*
X937443Y877639D01*
X937027Y876729D01*
X936548Y875852D01*
X936007Y875010D01*
X935408Y874210D01*
X934753Y873454D01*
X934046Y872747D01*
X933290Y872092D01*
X932490Y871493D01*
X931648Y870952D01*
X930771Y870473D01*
X929861Y870057D01*
X928924Y869708D01*
X927965Y869426D01*
X926987Y869214D01*
X925998Y869071D01*
X925000Y869000D01*
X924000Y869000D01*
X923003Y869071D01*
X922013Y869214D01*
X921036Y869426D01*
X920076Y869708D01*
X919139Y870057D01*
X918229Y870473D01*
X917352Y870952D01*
X916510Y871493D01*
X915710Y872092D01*
X914954Y872747D01*
X914247Y873454D01*
X913592Y874210D01*
X912993Y875010D01*
X912452Y875852D01*
X911973Y876729D01*
X911557Y877639D01*
X911208Y878576D01*
X910926Y879536D01*
X910714Y880513D01*
X910571Y881503D01*
X910500Y882500D01*
X910500Y883500D01*
X910571Y884498D01*
X910714Y885487D01*
X910926Y886465D01*
X911208Y887424D01*
X911557Y888361D01*
X911973Y889271D01*
X912452Y890148D01*
X912993Y890990D01*
X913592Y891790D01*
X914247Y892546D01*
X914954Y893253D01*
X915710Y893908D01*
X916510Y894507D01*
X917352Y895048D01*
X918229Y895527D01*
X919139Y895943D01*
X920076Y896292D01*
X921036Y896574D01*
X922013Y896786D01*
X923003Y896929D01*
X924000Y897000D01*
X925000Y897000D01*
X1235000Y897000D02*
X1235998Y896929D01*
X1236987Y896786D01*
X1237965Y896574D01*
X1238924Y896292D01*
X1239861Y895943D01*
X1240771Y895527D01*
X1241648Y895048D01*
X1242490Y894507D01*
X1243290Y893908D01*
X1244046Y893253D01*
X1244753Y892546D01*
X1245408Y891790D01*
X1246007Y890990D01*
X1246548Y890148D01*
X1247027Y889271D01*
X1247443Y888361D01*
X1247792Y887424D01*
X1248074Y886465D01*
X1248286Y885487D01*
X1248429Y884498D01*
X1248500Y883500D01*
X1248500Y882500D01*
X1248429Y881503D01*
X1248286Y880513D01*
X1248074Y879536D01*
X1247792Y878576D01*
X1247443Y877639D01*
X1247027Y876729D01*
X1246548Y875852D01*
X1246007Y875010D01*
X1245408Y874210D01*
X1244753Y873454D01*
X1244046Y872747D01*
X1243290Y872092D01*
X1242490Y871493D01*
X1241648Y870952D01*
X1240771Y870473D01*
X1239861Y870057D01*
X1238924Y869708D01*
X1237965Y869426D01*
X1236987Y869214D01*
X1235998Y869071D01*
X1235000Y869000D01*
X1234000Y869000D01*
X1233003Y869071D01*
X1232013Y869214D01*
X1231036Y869426D01*
X1230076Y869708D01*
X1229139Y870057D01*
X1228229Y870473D01*
X1227352Y870952D01*
X1226510Y871493D01*
X1225710Y872092D01*
X1224954Y872747D01*
X1224247Y873454D01*
X1223592Y874210D01*
X1222993Y875010D01*
X1222452Y875852D01*
X1221973Y876729D01*
X1221557Y877639D01*
X1221208Y878576D01*
X1220926Y879536D01*
X1220714Y880513D01*
X1220571Y881503D01*
X1220500Y882500D01*
X1220500Y883500D01*
X1220571Y884498D01*
X1220714Y885487D01*
X1220926Y886465D01*
X1221208Y887424D01*
X1221557Y888361D01*
X1221973Y889271D01*
X1222452Y890148D01*
X1222993Y890990D01*
X1223592Y891790D01*
X1224247Y892546D01*
X1224954Y893253D01*
X1225710Y893908D01*
X1226510Y894507D01*
X1227352Y895048D01*
X1228229Y895527D01*
X1229139Y895943D01*
X1230076Y896292D01*
X1231036Y896574D01*
X1232013Y896786D01*
X1233003Y896929D01*
X1234000Y897000D01*
X1235000Y897000D01*
M02*
