G04 EAGLE Gerber RS-274X export*
G75*
%MOMM*%
%FSLAX34Y34*%
%LPD*%
%INSilkscreen Top*%
%IPPOS*%
%AMOC8*
5,1,8,0,0,1.08239X$1,22.5*%
G01*
%ADD10C,0.127000*%
%ADD11C,0.203200*%
%ADD12C,0.400000*%
%ADD13R,6.250000X6.500000*%
%ADD14C,0.101600*%
%ADD15C,0.020319*%


D10*
X-16016Y402481D02*
X-16016Y403822D01*
X-16017Y403822D02*
X-16015Y403893D01*
X-16009Y403965D01*
X-16000Y404035D01*
X-15987Y404105D01*
X-15970Y404175D01*
X-15949Y404243D01*
X-15925Y404310D01*
X-15897Y404376D01*
X-15866Y404440D01*
X-15831Y404503D01*
X-15793Y404563D01*
X-15752Y404622D01*
X-15708Y404678D01*
X-15661Y404732D01*
X-15612Y404783D01*
X-15559Y404831D01*
X-15504Y404877D01*
X-15447Y404919D01*
X-15387Y404959D01*
X-15326Y404995D01*
X-15262Y405028D01*
X-15197Y405057D01*
X-15131Y405083D01*
X-15063Y405106D01*
X-14994Y405125D01*
X-14924Y405140D01*
X-14854Y405151D01*
X-14783Y405159D01*
X-14712Y405163D01*
X-14640Y405163D01*
X-14569Y405159D01*
X-14498Y405151D01*
X-14428Y405140D01*
X-14358Y405125D01*
X-14289Y405106D01*
X-14221Y405083D01*
X-14155Y405057D01*
X-14090Y405028D01*
X-14026Y404995D01*
X-13965Y404959D01*
X-13905Y404919D01*
X-13848Y404877D01*
X-13793Y404831D01*
X-13740Y404783D01*
X-13691Y404732D01*
X-13644Y404678D01*
X-13600Y404622D01*
X-13559Y404563D01*
X-13521Y404503D01*
X-13486Y404440D01*
X-13455Y404376D01*
X-13427Y404310D01*
X-13403Y404243D01*
X-13382Y404175D01*
X-13365Y404105D01*
X-13352Y404035D01*
X-13343Y403965D01*
X-13337Y403893D01*
X-13335Y403822D01*
X-13335Y402481D01*
X-18161Y402481D01*
X-18161Y403822D01*
X-18159Y403887D01*
X-18153Y403951D01*
X-18143Y404015D01*
X-18130Y404079D01*
X-18112Y404141D01*
X-18091Y404202D01*
X-18067Y404262D01*
X-18038Y404320D01*
X-18006Y404377D01*
X-17971Y404431D01*
X-17933Y404483D01*
X-17891Y404533D01*
X-17847Y404580D01*
X-17800Y404624D01*
X-17750Y404666D01*
X-17698Y404704D01*
X-17644Y404739D01*
X-17587Y404771D01*
X-17529Y404800D01*
X-17469Y404824D01*
X-17408Y404845D01*
X-17346Y404863D01*
X-17282Y404876D01*
X-17218Y404886D01*
X-17154Y404892D01*
X-17089Y404894D01*
X-17024Y404892D01*
X-16960Y404886D01*
X-16896Y404876D01*
X-16832Y404863D01*
X-16770Y404845D01*
X-16709Y404824D01*
X-16649Y404800D01*
X-16591Y404771D01*
X-16534Y404739D01*
X-16480Y404704D01*
X-16428Y404666D01*
X-16378Y404624D01*
X-16331Y404580D01*
X-16287Y404533D01*
X-16245Y404483D01*
X-16207Y404431D01*
X-16172Y404377D01*
X-16140Y404320D01*
X-16111Y404262D01*
X-16087Y404202D01*
X-16066Y404141D01*
X-16048Y404079D01*
X-16035Y404015D01*
X-16025Y403951D01*
X-16019Y403887D01*
X-16017Y403822D01*
X-17089Y407638D02*
X-18161Y408979D01*
X-13335Y408979D01*
X-13335Y410319D02*
X-13335Y407638D01*
D11*
X899500Y108000D02*
X899500Y908000D01*
X1259500Y908000D01*
X1259500Y108000D01*
X899500Y108000D01*
X948000Y151500D02*
X948000Y864500D01*
X1211000Y864500D01*
X1211000Y151500D01*
X948000Y151500D01*
D10*
X888365Y191135D02*
X883539Y191135D01*
X888365Y191135D02*
X888365Y193280D01*
X888365Y196731D02*
X888365Y197804D01*
X888365Y196731D02*
X888363Y196666D01*
X888357Y196602D01*
X888347Y196538D01*
X888334Y196474D01*
X888316Y196412D01*
X888295Y196351D01*
X888271Y196291D01*
X888242Y196233D01*
X888210Y196176D01*
X888175Y196122D01*
X888137Y196070D01*
X888095Y196020D01*
X888051Y195973D01*
X888004Y195929D01*
X887954Y195887D01*
X887902Y195849D01*
X887848Y195814D01*
X887791Y195782D01*
X887733Y195753D01*
X887673Y195729D01*
X887612Y195708D01*
X887550Y195690D01*
X887486Y195677D01*
X887422Y195667D01*
X887358Y195661D01*
X887293Y195659D01*
X884611Y195659D01*
X884611Y195658D02*
X884546Y195660D01*
X884482Y195666D01*
X884418Y195676D01*
X884354Y195689D01*
X884292Y195707D01*
X884231Y195728D01*
X884171Y195753D01*
X884112Y195781D01*
X884056Y195813D01*
X884001Y195848D01*
X883949Y195886D01*
X883899Y195928D01*
X883852Y195972D01*
X883808Y196019D01*
X883766Y196069D01*
X883728Y196121D01*
X883693Y196176D01*
X883661Y196232D01*
X883633Y196291D01*
X883608Y196350D01*
X883587Y196412D01*
X883569Y196474D01*
X883556Y196538D01*
X883546Y196602D01*
X883540Y196666D01*
X883538Y196731D01*
X883539Y196731D02*
X883539Y197804D01*
X883539Y200442D02*
X888365Y200442D01*
X883539Y200442D02*
X883539Y201783D01*
X883541Y201853D01*
X883546Y201923D01*
X883556Y201993D01*
X883568Y202062D01*
X883585Y202130D01*
X883605Y202197D01*
X883628Y202264D01*
X883655Y202328D01*
X883685Y202392D01*
X883719Y202454D01*
X883755Y202513D01*
X883795Y202571D01*
X883838Y202627D01*
X883883Y202680D01*
X883932Y202731D01*
X883983Y202780D01*
X884036Y202825D01*
X884092Y202868D01*
X884150Y202908D01*
X884210Y202944D01*
X884271Y202978D01*
X884335Y203008D01*
X884399Y203035D01*
X884466Y203058D01*
X884533Y203078D01*
X884601Y203095D01*
X884670Y203107D01*
X884740Y203117D01*
X884810Y203122D01*
X884880Y203124D01*
X884880Y203123D02*
X887024Y203123D01*
X887024Y203124D02*
X887094Y203122D01*
X887164Y203117D01*
X887234Y203107D01*
X887303Y203095D01*
X887371Y203078D01*
X887438Y203058D01*
X887505Y203035D01*
X887569Y203008D01*
X887633Y202978D01*
X887695Y202944D01*
X887754Y202908D01*
X887812Y202868D01*
X887868Y202825D01*
X887921Y202780D01*
X887972Y202731D01*
X888021Y202680D01*
X888066Y202627D01*
X888109Y202571D01*
X888149Y202513D01*
X888185Y202453D01*
X888219Y202392D01*
X888249Y202328D01*
X888276Y202264D01*
X888299Y202197D01*
X888319Y202130D01*
X888336Y202062D01*
X888348Y201993D01*
X888358Y201923D01*
X888363Y201853D01*
X888365Y201783D01*
X888365Y200442D01*
X884611Y206112D02*
X883539Y207452D01*
X888365Y207452D01*
X888365Y206112D02*
X888365Y208793D01*
D11*
X332900Y797700D02*
X333142Y797703D01*
X333383Y797712D01*
X333624Y797726D01*
X333865Y797747D01*
X334105Y797773D01*
X334345Y797805D01*
X334584Y797843D01*
X334821Y797886D01*
X335058Y797936D01*
X335293Y797991D01*
X335527Y798051D01*
X335759Y798118D01*
X335990Y798189D01*
X336219Y798267D01*
X336446Y798350D01*
X336671Y798438D01*
X336894Y798532D01*
X337114Y798631D01*
X337332Y798736D01*
X337547Y798845D01*
X337760Y798960D01*
X337970Y799080D01*
X338176Y799205D01*
X338380Y799335D01*
X338581Y799470D01*
X338778Y799610D01*
X338972Y799754D01*
X339162Y799903D01*
X339348Y800057D01*
X339531Y800215D01*
X339710Y800377D01*
X339885Y800544D01*
X340056Y800715D01*
X340223Y800890D01*
X340385Y801069D01*
X340543Y801252D01*
X340697Y801438D01*
X340846Y801628D01*
X340990Y801822D01*
X341130Y802019D01*
X341265Y802220D01*
X341395Y802424D01*
X341520Y802630D01*
X341640Y802840D01*
X341755Y803053D01*
X341864Y803268D01*
X341969Y803486D01*
X342068Y803706D01*
X342162Y803929D01*
X342250Y804154D01*
X342333Y804381D01*
X342411Y804610D01*
X342482Y804841D01*
X342549Y805073D01*
X342609Y805307D01*
X342664Y805542D01*
X342714Y805779D01*
X342757Y806016D01*
X342795Y806255D01*
X342827Y806495D01*
X342853Y806735D01*
X342874Y806976D01*
X342888Y807217D01*
X342897Y807458D01*
X342900Y807700D01*
X332900Y797700D02*
X143400Y797700D01*
X142414Y797712D01*
X141428Y797748D01*
X140444Y797808D01*
X139461Y797892D01*
X138481Y798000D01*
X137503Y798132D01*
X136529Y798287D01*
X135559Y798466D01*
X134594Y798669D01*
X133634Y798895D01*
X132680Y799145D01*
X131732Y799417D01*
X130791Y799713D01*
X129858Y800031D01*
X128932Y800372D01*
X128015Y800736D01*
X127108Y801122D01*
X126210Y801529D01*
X125322Y801959D01*
X124444Y802410D01*
X123579Y802882D01*
X122724Y803375D01*
X121883Y803889D01*
X121053Y804423D01*
X120238Y804977D01*
X119435Y805551D01*
X118647Y806144D01*
X117874Y806757D01*
X117116Y807388D01*
X116374Y808037D01*
X115647Y808704D01*
X114937Y809388D01*
X114244Y810090D01*
X113568Y810808D01*
X112910Y811543D01*
X112270Y812293D01*
X111648Y813059D01*
X111045Y813840D01*
X110462Y814635D01*
X109898Y815444D01*
X109353Y816266D01*
X108829Y817102D01*
X108326Y817950D01*
X107843Y818810D01*
X107382Y819682D01*
X106941Y820564D01*
X106523Y821457D01*
X106126Y822360D01*
X105751Y823273D01*
X105399Y824194D01*
X105069Y825123D01*
X104762Y826061D01*
X104478Y827005D01*
X104217Y827956D01*
X103979Y828913D01*
X103765Y829876D01*
X103574Y830844D01*
X103406Y831816D01*
X103263Y832791D01*
X103143Y833770D01*
X103047Y834752D01*
X102975Y835736D01*
X102927Y836721D01*
X102903Y837707D01*
X102903Y838693D01*
X102927Y839679D01*
X102975Y840664D01*
X103047Y841648D01*
X103143Y842630D01*
X103263Y843609D01*
X103406Y844584D01*
X103574Y845556D01*
X103765Y846524D01*
X103979Y847487D01*
X104217Y848444D01*
X104478Y849395D01*
X104762Y850339D01*
X105069Y851277D01*
X105399Y852206D01*
X105751Y853127D01*
X106126Y854040D01*
X106523Y854943D01*
X106941Y855836D01*
X107382Y856718D01*
X107843Y857590D01*
X108326Y858450D01*
X108829Y859298D01*
X109353Y860134D01*
X109898Y860956D01*
X110462Y861765D01*
X111045Y862560D01*
X111648Y863341D01*
X112270Y864107D01*
X112910Y864857D01*
X113568Y865592D01*
X114244Y866310D01*
X114937Y867012D01*
X115647Y867696D01*
X116374Y868363D01*
X117116Y869012D01*
X117874Y869643D01*
X118647Y870256D01*
X119435Y870849D01*
X120238Y871423D01*
X121053Y871977D01*
X121883Y872511D01*
X122724Y873025D01*
X123579Y873518D01*
X124444Y873990D01*
X125322Y874441D01*
X126210Y874871D01*
X127108Y875278D01*
X128015Y875664D01*
X128932Y876028D01*
X129858Y876369D01*
X130791Y876687D01*
X131732Y876983D01*
X132680Y877255D01*
X133634Y877505D01*
X134594Y877731D01*
X135559Y877934D01*
X136529Y878113D01*
X137503Y878268D01*
X138481Y878400D01*
X139461Y878508D01*
X140444Y878592D01*
X141428Y878652D01*
X142414Y878688D01*
X143400Y878700D01*
X332900Y878700D01*
X333142Y878697D01*
X333383Y878688D01*
X333624Y878674D01*
X333865Y878653D01*
X334105Y878627D01*
X334345Y878595D01*
X334584Y878557D01*
X334821Y878514D01*
X335058Y878464D01*
X335293Y878409D01*
X335527Y878349D01*
X335759Y878282D01*
X335990Y878211D01*
X336219Y878133D01*
X336446Y878050D01*
X336671Y877962D01*
X336894Y877868D01*
X337114Y877769D01*
X337332Y877664D01*
X337547Y877555D01*
X337760Y877440D01*
X337970Y877320D01*
X338176Y877195D01*
X338380Y877065D01*
X338581Y876930D01*
X338778Y876790D01*
X338972Y876646D01*
X339162Y876497D01*
X339348Y876343D01*
X339531Y876185D01*
X339710Y876023D01*
X339885Y875856D01*
X340056Y875685D01*
X340223Y875510D01*
X340385Y875331D01*
X340543Y875148D01*
X340697Y874962D01*
X340846Y874772D01*
X340990Y874578D01*
X341130Y874381D01*
X341265Y874180D01*
X341395Y873976D01*
X341520Y873770D01*
X341640Y873560D01*
X341755Y873347D01*
X341864Y873132D01*
X341969Y872914D01*
X342068Y872694D01*
X342162Y872471D01*
X342250Y872246D01*
X342333Y872019D01*
X342411Y871790D01*
X342482Y871559D01*
X342549Y871327D01*
X342609Y871093D01*
X342664Y870858D01*
X342714Y870621D01*
X342757Y870384D01*
X342795Y870145D01*
X342827Y869905D01*
X342853Y869665D01*
X342874Y869424D01*
X342888Y869183D01*
X342897Y868942D01*
X342900Y868700D01*
X342900Y807700D01*
D12*
X344400Y813200D02*
X384150Y813200D01*
X384150Y863200D02*
X344400Y863200D01*
D13*
X151650Y838200D03*
D14*
X306479Y793242D02*
X306479Y781558D01*
X306479Y793242D02*
X309725Y793242D01*
X309838Y793240D01*
X309951Y793234D01*
X310064Y793224D01*
X310177Y793210D01*
X310289Y793193D01*
X310400Y793171D01*
X310510Y793146D01*
X310620Y793116D01*
X310728Y793083D01*
X310835Y793046D01*
X310941Y793006D01*
X311045Y792961D01*
X311148Y792913D01*
X311249Y792862D01*
X311348Y792807D01*
X311445Y792749D01*
X311540Y792687D01*
X311633Y792622D01*
X311723Y792554D01*
X311811Y792483D01*
X311897Y792408D01*
X311980Y792331D01*
X312060Y792251D01*
X312137Y792168D01*
X312212Y792082D01*
X312283Y791994D01*
X312351Y791904D01*
X312416Y791811D01*
X312478Y791716D01*
X312536Y791619D01*
X312591Y791520D01*
X312642Y791419D01*
X312690Y791316D01*
X312735Y791212D01*
X312775Y791106D01*
X312812Y790999D01*
X312845Y790891D01*
X312875Y790781D01*
X312900Y790671D01*
X312922Y790560D01*
X312939Y790448D01*
X312953Y790335D01*
X312963Y790222D01*
X312969Y790109D01*
X312971Y789996D01*
X312969Y789883D01*
X312963Y789770D01*
X312953Y789657D01*
X312939Y789544D01*
X312922Y789432D01*
X312900Y789321D01*
X312875Y789211D01*
X312845Y789101D01*
X312812Y788993D01*
X312775Y788886D01*
X312735Y788780D01*
X312690Y788676D01*
X312642Y788573D01*
X312591Y788472D01*
X312536Y788373D01*
X312478Y788276D01*
X312416Y788181D01*
X312351Y788088D01*
X312283Y787998D01*
X312212Y787910D01*
X312137Y787824D01*
X312060Y787741D01*
X311980Y787661D01*
X311897Y787584D01*
X311811Y787509D01*
X311723Y787438D01*
X311633Y787370D01*
X311540Y787305D01*
X311445Y787243D01*
X311348Y787185D01*
X311249Y787130D01*
X311148Y787079D01*
X311045Y787031D01*
X310941Y786986D01*
X310835Y786946D01*
X310728Y786909D01*
X310620Y786876D01*
X310510Y786846D01*
X310400Y786821D01*
X310289Y786799D01*
X310177Y786782D01*
X310064Y786768D01*
X309951Y786758D01*
X309838Y786752D01*
X309725Y786750D01*
X309725Y786751D02*
X306479Y786751D01*
X317740Y781558D02*
X317740Y793242D01*
X317740Y788049D02*
X324231Y788049D01*
X324231Y793242D02*
X324231Y781558D01*
X329551Y790646D02*
X332796Y793242D01*
X332796Y781558D01*
X329551Y781558D02*
X336042Y781558D01*
D11*
X538480Y800100D02*
X538480Y850900D01*
X546100Y850900D01*
X553720Y850900D01*
X553720Y800100D01*
X546100Y800100D01*
X538480Y800100D01*
X546100Y850900D02*
X546100Y853440D01*
X546100Y800100D02*
X546100Y797560D01*
D10*
X535305Y821448D02*
X530479Y821448D01*
X530479Y822789D01*
X530481Y822860D01*
X530487Y822932D01*
X530496Y823002D01*
X530509Y823072D01*
X530526Y823142D01*
X530547Y823210D01*
X530571Y823277D01*
X530599Y823343D01*
X530630Y823407D01*
X530665Y823470D01*
X530703Y823530D01*
X530744Y823589D01*
X530788Y823645D01*
X530835Y823699D01*
X530884Y823750D01*
X530937Y823798D01*
X530992Y823844D01*
X531049Y823886D01*
X531109Y823926D01*
X531170Y823962D01*
X531234Y823995D01*
X531299Y824024D01*
X531365Y824050D01*
X531433Y824073D01*
X531502Y824092D01*
X531572Y824107D01*
X531642Y824118D01*
X531713Y824126D01*
X531784Y824130D01*
X531856Y824130D01*
X531927Y824126D01*
X531998Y824118D01*
X532068Y824107D01*
X532138Y824092D01*
X532207Y824073D01*
X532275Y824050D01*
X532341Y824024D01*
X532406Y823995D01*
X532470Y823962D01*
X532531Y823926D01*
X532591Y823886D01*
X532648Y823844D01*
X532703Y823798D01*
X532756Y823750D01*
X532805Y823699D01*
X532852Y823645D01*
X532896Y823589D01*
X532937Y823530D01*
X532975Y823470D01*
X533010Y823407D01*
X533041Y823343D01*
X533069Y823277D01*
X533093Y823210D01*
X533114Y823142D01*
X533131Y823072D01*
X533144Y823002D01*
X533153Y822932D01*
X533159Y822860D01*
X533161Y822789D01*
X533160Y822789D02*
X533160Y821448D01*
X533160Y823057D02*
X535305Y824129D01*
X531551Y826871D02*
X530479Y828211D01*
X535305Y828211D01*
X535305Y826871D02*
X535305Y829552D01*
D11*
X812800Y579120D02*
X863600Y579120D01*
X863600Y571500D01*
X863600Y563880D01*
X812800Y563880D01*
X812800Y571500D01*
X812800Y579120D01*
X863600Y571500D02*
X866140Y571500D01*
X812800Y571500D02*
X810260Y571500D01*
D10*
X834148Y582295D02*
X834148Y587121D01*
X835489Y587121D01*
X835560Y587119D01*
X835632Y587113D01*
X835702Y587104D01*
X835772Y587091D01*
X835842Y587074D01*
X835910Y587053D01*
X835977Y587029D01*
X836043Y587001D01*
X836107Y586970D01*
X836170Y586935D01*
X836230Y586897D01*
X836289Y586856D01*
X836345Y586812D01*
X836399Y586765D01*
X836450Y586716D01*
X836498Y586663D01*
X836544Y586608D01*
X836586Y586551D01*
X836626Y586491D01*
X836662Y586430D01*
X836695Y586366D01*
X836724Y586301D01*
X836750Y586235D01*
X836773Y586167D01*
X836792Y586098D01*
X836807Y586028D01*
X836818Y585958D01*
X836826Y585887D01*
X836830Y585816D01*
X836830Y585744D01*
X836826Y585673D01*
X836818Y585602D01*
X836807Y585532D01*
X836792Y585462D01*
X836773Y585393D01*
X836750Y585325D01*
X836724Y585259D01*
X836695Y585194D01*
X836662Y585130D01*
X836626Y585069D01*
X836586Y585009D01*
X836544Y584952D01*
X836498Y584897D01*
X836450Y584844D01*
X836399Y584795D01*
X836345Y584748D01*
X836289Y584704D01*
X836230Y584663D01*
X836170Y584625D01*
X836107Y584590D01*
X836043Y584559D01*
X835977Y584531D01*
X835910Y584507D01*
X835842Y584486D01*
X835772Y584469D01*
X835702Y584456D01*
X835632Y584447D01*
X835560Y584441D01*
X835489Y584439D01*
X835489Y584440D02*
X834148Y584440D01*
X835757Y584440D02*
X836829Y582295D01*
X841045Y587121D02*
X841113Y587119D01*
X841180Y587113D01*
X841247Y587104D01*
X841314Y587091D01*
X841379Y587074D01*
X841444Y587053D01*
X841507Y587029D01*
X841569Y587001D01*
X841629Y586970D01*
X841687Y586936D01*
X841743Y586898D01*
X841798Y586858D01*
X841849Y586814D01*
X841898Y586767D01*
X841945Y586718D01*
X841989Y586667D01*
X842029Y586612D01*
X842067Y586556D01*
X842101Y586498D01*
X842132Y586438D01*
X842160Y586376D01*
X842184Y586313D01*
X842205Y586248D01*
X842222Y586183D01*
X842235Y586116D01*
X842244Y586049D01*
X842250Y585982D01*
X842252Y585914D01*
X841045Y587121D02*
X840967Y587119D01*
X840889Y587113D01*
X840812Y587103D01*
X840735Y587090D01*
X840659Y587072D01*
X840584Y587051D01*
X840510Y587026D01*
X840438Y586997D01*
X840367Y586965D01*
X840298Y586929D01*
X840230Y586890D01*
X840165Y586847D01*
X840102Y586801D01*
X840041Y586752D01*
X839983Y586700D01*
X839928Y586645D01*
X839875Y586588D01*
X839826Y586528D01*
X839779Y586465D01*
X839736Y586401D01*
X839696Y586334D01*
X839659Y586265D01*
X839626Y586194D01*
X839596Y586122D01*
X839570Y586049D01*
X841850Y584976D02*
X841899Y585025D01*
X841946Y585077D01*
X841989Y585132D01*
X842030Y585189D01*
X842068Y585248D01*
X842102Y585309D01*
X842133Y585372D01*
X842161Y585436D01*
X842185Y585502D01*
X842205Y585568D01*
X842222Y585636D01*
X842235Y585705D01*
X842244Y585774D01*
X842250Y585844D01*
X842252Y585914D01*
X841850Y584976D02*
X839571Y582295D01*
X842252Y582295D01*
D15*
X791871Y750228D02*
X792410Y748481D01*
X791811Y748286D01*
X791218Y748076D01*
X790629Y747852D01*
X790047Y747613D01*
X789470Y747360D01*
X788900Y747093D01*
X788336Y746813D01*
X787780Y746518D01*
X787231Y746210D01*
X786689Y745889D01*
X786156Y745555D01*
X785631Y745207D01*
X785114Y744847D01*
X784606Y744475D01*
X784108Y744090D01*
X783619Y743693D01*
X783141Y743284D01*
X782672Y742864D01*
X782214Y742432D01*
X781766Y741990D01*
X781329Y741536D01*
X780904Y741072D01*
X780490Y740598D01*
X780088Y740113D01*
X779697Y739619D01*
X779319Y739116D01*
X778953Y738603D01*
X778600Y738082D01*
X778260Y737552D01*
X777933Y737015D01*
X777619Y736469D01*
X777318Y735916D01*
X777032Y735355D01*
X776758Y734788D01*
X776499Y734214D01*
X776254Y733634D01*
X776023Y733048D01*
X775807Y732457D01*
X775605Y731861D01*
X775418Y731260D01*
X775245Y730654D01*
X775088Y730045D01*
X774945Y729431D01*
X774817Y728815D01*
X774705Y728195D01*
X774607Y727573D01*
X774525Y726949D01*
X774458Y726323D01*
X774407Y725696D01*
X774370Y725067D01*
X774350Y724438D01*
X774344Y723808D01*
X774354Y723179D01*
X774379Y722550D01*
X774420Y721922D01*
X774476Y721294D01*
X774547Y720669D01*
X774634Y720045D01*
X774736Y719424D01*
X774853Y718805D01*
X774985Y718190D01*
X775132Y717578D01*
X775294Y716969D01*
X775471Y716365D01*
X775662Y715765D01*
X775869Y715170D01*
X776089Y714581D01*
X776324Y713997D01*
X776573Y713418D01*
X776837Y712846D01*
X777114Y712281D01*
X777404Y711723D01*
X777709Y711172D01*
X778027Y710628D01*
X778358Y710093D01*
X778702Y709565D01*
X779058Y709047D01*
X779428Y708537D01*
X779810Y708036D01*
X778374Y706904D01*
X778373Y706904D01*
X777964Y707440D01*
X777568Y707986D01*
X777186Y708542D01*
X776817Y709107D01*
X776462Y709680D01*
X776122Y710262D01*
X775796Y710853D01*
X775484Y711451D01*
X775187Y712056D01*
X774905Y712669D01*
X774638Y713288D01*
X774386Y713914D01*
X774149Y714546D01*
X773928Y715183D01*
X773723Y715826D01*
X773534Y716473D01*
X773360Y717125D01*
X773202Y717780D01*
X773061Y718440D01*
X772935Y719103D01*
X772826Y719768D01*
X772733Y720436D01*
X772657Y721106D01*
X772597Y721778D01*
X772553Y722451D01*
X772526Y723125D01*
X772515Y723800D01*
X772521Y724474D01*
X772543Y725148D01*
X772582Y725822D01*
X772637Y726494D01*
X772709Y727164D01*
X772797Y727833D01*
X772901Y728500D01*
X773022Y729163D01*
X773159Y729824D01*
X773311Y730481D01*
X773480Y731134D01*
X773665Y731782D01*
X773866Y732426D01*
X774082Y733065D01*
X774314Y733698D01*
X774561Y734326D01*
X774824Y734947D01*
X775101Y735562D01*
X775394Y736170D01*
X775701Y736770D01*
X776023Y737363D01*
X776360Y737947D01*
X776710Y738524D01*
X777075Y739091D01*
X777453Y739649D01*
X777845Y740198D01*
X778250Y740738D01*
X778668Y741267D01*
X779099Y741786D01*
X779543Y742294D01*
X779999Y742791D01*
X780466Y743277D01*
X780946Y743751D01*
X781437Y744213D01*
X781939Y744664D01*
X782452Y745101D01*
X782976Y745526D01*
X783510Y745939D01*
X784054Y746338D01*
X784607Y746723D01*
X785170Y747095D01*
X785741Y747453D01*
X786322Y747797D01*
X786910Y748127D01*
X787506Y748442D01*
X788110Y748743D01*
X788721Y749029D01*
X789339Y749299D01*
X789963Y749555D01*
X790593Y749795D01*
X791229Y750020D01*
X791870Y750229D01*
X791927Y750045D01*
X791290Y749838D01*
X790659Y749615D01*
X790033Y749376D01*
X789413Y749122D01*
X788800Y748854D01*
X788193Y748570D01*
X787593Y748271D01*
X787001Y747958D01*
X786417Y747631D01*
X785841Y747289D01*
X785273Y746934D01*
X784715Y746564D01*
X784165Y746181D01*
X783625Y745785D01*
X783095Y745376D01*
X782575Y744954D01*
X782065Y744519D01*
X781567Y744072D01*
X781079Y743613D01*
X780603Y743142D01*
X780138Y742659D01*
X779686Y742166D01*
X779245Y741661D01*
X778817Y741146D01*
X778402Y740620D01*
X778000Y740085D01*
X777610Y739540D01*
X777235Y738985D01*
X776873Y738422D01*
X776525Y737849D01*
X776191Y737269D01*
X775871Y736680D01*
X775566Y736084D01*
X775275Y735481D01*
X775000Y734870D01*
X774739Y734253D01*
X774493Y733630D01*
X774263Y733001D01*
X774048Y732367D01*
X773849Y731727D01*
X773666Y731083D01*
X773498Y730435D01*
X773346Y729782D01*
X773210Y729127D01*
X773090Y728468D01*
X772987Y727806D01*
X772900Y727142D01*
X772828Y726476D01*
X772774Y725808D01*
X772735Y725140D01*
X772713Y724470D01*
X772707Y723801D01*
X772718Y723131D01*
X772745Y722462D01*
X772788Y721793D01*
X772848Y721126D01*
X772924Y720461D01*
X773016Y719797D01*
X773124Y719136D01*
X773249Y718478D01*
X773389Y717823D01*
X773546Y717172D01*
X773718Y716525D01*
X773907Y715882D01*
X774110Y715244D01*
X774330Y714611D01*
X774565Y713984D01*
X774815Y713363D01*
X775080Y712748D01*
X775360Y712139D01*
X775655Y711538D01*
X775965Y710944D01*
X776288Y710358D01*
X776627Y709780D01*
X776979Y709210D01*
X777345Y708649D01*
X777725Y708097D01*
X778118Y707555D01*
X778524Y707023D01*
X778675Y707141D01*
X778271Y707670D01*
X777881Y708209D01*
X777504Y708757D01*
X777141Y709314D01*
X776791Y709879D01*
X776455Y710453D01*
X776133Y711035D01*
X775826Y711625D01*
X775533Y712222D01*
X775255Y712826D01*
X774992Y713437D01*
X774743Y714054D01*
X774510Y714677D01*
X774293Y715305D01*
X774090Y715939D01*
X773903Y716577D01*
X773732Y717220D01*
X773577Y717866D01*
X773437Y718517D01*
X773313Y719170D01*
X773206Y719826D01*
X773114Y720485D01*
X773039Y721146D01*
X772980Y721808D01*
X772937Y722472D01*
X772910Y723136D01*
X772899Y723801D01*
X772905Y724467D01*
X772927Y725131D01*
X772965Y725795D01*
X773020Y726458D01*
X773090Y727119D01*
X773177Y727779D01*
X773280Y728436D01*
X773399Y729090D01*
X773534Y729741D01*
X773684Y730389D01*
X773851Y731033D01*
X774033Y731673D01*
X774231Y732307D01*
X774444Y732937D01*
X774673Y733562D01*
X774917Y734181D01*
X775176Y734793D01*
X775449Y735399D01*
X775738Y735999D01*
X776041Y736591D01*
X776358Y737175D01*
X776690Y737751D01*
X777036Y738320D01*
X777395Y738879D01*
X777768Y739430D01*
X778154Y739971D01*
X778554Y740503D01*
X778966Y741025D01*
X779391Y741536D01*
X779828Y742037D01*
X780278Y742527D01*
X780739Y743006D01*
X781212Y743474D01*
X781696Y743930D01*
X782192Y744374D01*
X782697Y744806D01*
X783214Y745225D01*
X783740Y745631D01*
X784276Y746025D01*
X784822Y746405D01*
X785377Y746772D01*
X785940Y747125D01*
X786512Y747464D01*
X787093Y747789D01*
X787680Y748100D01*
X788276Y748397D01*
X788878Y748678D01*
X789487Y748945D01*
X790103Y749197D01*
X790724Y749434D01*
X791351Y749656D01*
X791984Y749862D01*
X792040Y749678D01*
X791412Y749474D01*
X790790Y749254D01*
X790173Y749018D01*
X789562Y748768D01*
X788957Y748503D01*
X788359Y748223D01*
X787768Y747929D01*
X787184Y747620D01*
X786608Y747298D01*
X786040Y746961D01*
X785480Y746610D01*
X784929Y746246D01*
X784388Y745868D01*
X783855Y745478D01*
X783333Y745074D01*
X782820Y744658D01*
X782318Y744229D01*
X781826Y743788D01*
X781345Y743336D01*
X780876Y742871D01*
X780418Y742396D01*
X779971Y741909D01*
X779537Y741412D01*
X779115Y740904D01*
X778706Y740385D01*
X778309Y739858D01*
X777925Y739320D01*
X777555Y738773D01*
X777198Y738218D01*
X776855Y737654D01*
X776526Y737081D01*
X776211Y736501D01*
X775910Y735913D01*
X775623Y735318D01*
X775351Y734716D01*
X775094Y734108D01*
X774852Y733494D01*
X774625Y732874D01*
X774414Y732248D01*
X774217Y731618D01*
X774036Y730983D01*
X773871Y730343D01*
X773721Y729700D01*
X773587Y729053D01*
X773469Y728404D01*
X773367Y727751D01*
X773281Y727097D01*
X773211Y726440D01*
X773157Y725782D01*
X773119Y725123D01*
X773097Y724463D01*
X773091Y723802D01*
X773102Y723142D01*
X773128Y722482D01*
X773171Y721823D01*
X773230Y721166D01*
X773305Y720510D01*
X773396Y719855D01*
X773502Y719204D01*
X773625Y718555D01*
X773764Y717909D01*
X773918Y717267D01*
X774088Y716629D01*
X774274Y715995D01*
X774475Y715366D01*
X774691Y714743D01*
X774922Y714124D01*
X775169Y713511D01*
X775430Y712905D01*
X775706Y712305D01*
X775997Y711712D01*
X776302Y711127D01*
X776622Y710549D01*
X776955Y709979D01*
X777302Y709417D01*
X777663Y708864D01*
X778038Y708320D01*
X778425Y707785D01*
X778825Y707260D01*
X778976Y707379D01*
X778579Y707901D01*
X778194Y708431D01*
X777822Y708972D01*
X777464Y709521D01*
X777119Y710078D01*
X776788Y710644D01*
X776471Y711218D01*
X776168Y711800D01*
X775880Y712388D01*
X775605Y712984D01*
X775346Y713586D01*
X775101Y714194D01*
X774871Y714808D01*
X774657Y715428D01*
X774457Y716052D01*
X774273Y716681D01*
X774104Y717315D01*
X773951Y717952D01*
X773813Y718593D01*
X773691Y719238D01*
X773585Y719885D01*
X773495Y720534D01*
X773421Y721185D01*
X773362Y721838D01*
X773320Y722493D01*
X773294Y723148D01*
X773283Y723803D01*
X773289Y724459D01*
X773311Y725114D01*
X773348Y725769D01*
X773402Y726422D01*
X773472Y727074D01*
X773557Y727724D01*
X773658Y728372D01*
X773776Y729017D01*
X773909Y729659D01*
X774057Y730298D01*
X774221Y730932D01*
X774401Y731563D01*
X774596Y732189D01*
X774806Y732810D01*
X775032Y733425D01*
X775272Y734035D01*
X775527Y734639D01*
X775797Y735237D01*
X776082Y735828D01*
X776380Y736411D01*
X776693Y736987D01*
X777020Y737556D01*
X777361Y738116D01*
X777715Y738667D01*
X778083Y739210D01*
X778464Y739744D01*
X778858Y740268D01*
X779264Y740783D01*
X779683Y741287D01*
X780114Y741781D01*
X780557Y742264D01*
X781012Y742736D01*
X781478Y743197D01*
X781956Y743647D01*
X782444Y744084D01*
X782943Y744510D01*
X783451Y744923D01*
X783970Y745324D01*
X784499Y745712D01*
X785037Y746087D01*
X785584Y746448D01*
X786139Y746797D01*
X786703Y747131D01*
X787275Y747452D01*
X787855Y747758D01*
X788442Y748050D01*
X789036Y748328D01*
X789636Y748591D01*
X790243Y748840D01*
X790855Y749073D01*
X791474Y749292D01*
X792097Y749495D01*
X792153Y749311D01*
X791535Y749110D01*
X790921Y748893D01*
X790313Y748661D01*
X789710Y748414D01*
X789114Y748153D01*
X788525Y747877D01*
X787942Y747587D01*
X787366Y747283D01*
X786799Y746964D01*
X786239Y746632D01*
X785687Y746287D01*
X785144Y745928D01*
X784610Y745555D01*
X784086Y745170D01*
X783570Y744772D01*
X783065Y744362D01*
X782570Y743940D01*
X782085Y743505D01*
X781611Y743059D01*
X781149Y742601D01*
X780697Y742132D01*
X780257Y741652D01*
X779829Y741162D01*
X779413Y740661D01*
X779010Y740151D01*
X778619Y739630D01*
X778241Y739100D01*
X777875Y738562D01*
X777524Y738014D01*
X777185Y737458D01*
X776861Y736893D01*
X776550Y736322D01*
X776254Y735742D01*
X775971Y735156D01*
X775703Y734562D01*
X775450Y733963D01*
X775211Y733357D01*
X774987Y732746D01*
X774779Y732129D01*
X774585Y731508D01*
X774407Y730882D01*
X774244Y730252D01*
X774096Y729618D01*
X773964Y728980D01*
X773848Y728340D01*
X773747Y727697D01*
X773662Y727052D01*
X773593Y726404D01*
X773540Y725756D01*
X773502Y725106D01*
X773481Y724455D01*
X773475Y723804D01*
X773485Y723153D01*
X773512Y722503D01*
X773554Y721853D01*
X773612Y721205D01*
X773686Y720558D01*
X773775Y719914D01*
X773880Y719271D01*
X774001Y718632D01*
X774138Y717995D01*
X774290Y717362D01*
X774458Y716733D01*
X774640Y716109D01*
X774839Y715489D01*
X775052Y714874D01*
X775280Y714264D01*
X775523Y713660D01*
X775781Y713062D01*
X776053Y712471D01*
X776339Y711887D01*
X776640Y711309D01*
X776955Y710740D01*
X777284Y710178D01*
X777626Y709624D01*
X777981Y709079D01*
X778350Y708543D01*
X778732Y708016D01*
X779127Y707498D01*
X779278Y707617D01*
X778886Y708131D01*
X778507Y708654D01*
X778141Y709186D01*
X777788Y709728D01*
X777448Y710277D01*
X777121Y710835D01*
X776809Y711401D01*
X776510Y711974D01*
X776226Y712554D01*
X775956Y713141D01*
X775700Y713734D01*
X775459Y714334D01*
X775232Y714939D01*
X775021Y715550D01*
X774824Y716165D01*
X774642Y716786D01*
X774476Y717410D01*
X774325Y718038D01*
X774190Y718670D01*
X774069Y719305D01*
X773965Y719943D01*
X773876Y720583D01*
X773803Y721225D01*
X773745Y721868D01*
X773703Y722513D01*
X773677Y723159D01*
X773667Y723805D01*
X773673Y724451D01*
X773694Y725097D01*
X773731Y725742D01*
X773784Y726386D01*
X773853Y727029D01*
X773937Y727670D01*
X774037Y728308D01*
X774153Y728944D01*
X774284Y729577D01*
X774430Y730206D01*
X774592Y730832D01*
X774769Y731453D01*
X774961Y732070D01*
X775169Y732682D01*
X775391Y733289D01*
X775628Y733890D01*
X775879Y734485D01*
X776145Y735074D01*
X776425Y735657D01*
X776720Y736232D01*
X777028Y736800D01*
X777351Y737360D01*
X777686Y737912D01*
X778036Y738456D01*
X778398Y738991D01*
X778773Y739517D01*
X779162Y740033D01*
X779562Y740540D01*
X779975Y741037D01*
X780400Y741524D01*
X780837Y742001D01*
X781285Y742466D01*
X781744Y742920D01*
X782215Y743363D01*
X782696Y743795D01*
X783188Y744214D01*
X783689Y744622D01*
X784201Y745017D01*
X784722Y745399D01*
X785252Y745769D01*
X785791Y746125D01*
X786338Y746468D01*
X786894Y746798D01*
X787458Y747114D01*
X788029Y747416D01*
X788607Y747704D01*
X789193Y747978D01*
X789785Y748237D01*
X790383Y748482D01*
X790986Y748712D01*
X791596Y748928D01*
X792210Y749128D01*
X792267Y748945D01*
X791657Y748746D01*
X791052Y748532D01*
X790453Y748303D01*
X789859Y748060D01*
X789271Y747803D01*
X788690Y747531D01*
X788116Y747245D01*
X787549Y746945D01*
X786990Y746631D01*
X786438Y746304D01*
X785894Y745963D01*
X785359Y745609D01*
X784833Y745243D01*
X784316Y744863D01*
X783808Y744471D01*
X783310Y744066D01*
X782822Y743650D01*
X782344Y743222D01*
X781877Y742782D01*
X781421Y742331D01*
X780976Y741869D01*
X780543Y741396D01*
X780121Y740913D01*
X779711Y740419D01*
X779313Y739916D01*
X778928Y739403D01*
X778556Y738881D01*
X778196Y738350D01*
X777849Y737810D01*
X777516Y737262D01*
X777196Y736706D01*
X776890Y736142D01*
X776597Y735571D01*
X776319Y734993D01*
X776055Y734408D01*
X775805Y733818D01*
X775570Y733221D01*
X775350Y732618D01*
X775144Y732011D01*
X774953Y731398D01*
X774777Y730781D01*
X774617Y730160D01*
X774471Y729535D01*
X774341Y728907D01*
X774226Y728276D01*
X774127Y727642D01*
X774044Y727006D01*
X773975Y726368D01*
X773923Y725729D01*
X773886Y725089D01*
X773865Y724448D01*
X773859Y723806D01*
X773869Y723165D01*
X773895Y722524D01*
X773937Y721884D01*
X773994Y721245D01*
X774066Y720607D01*
X774155Y719972D01*
X774258Y719339D01*
X774378Y718708D01*
X774512Y718081D01*
X774662Y717458D01*
X774827Y716838D01*
X775007Y716222D01*
X775203Y715611D01*
X775413Y715005D01*
X775637Y714404D01*
X775877Y713809D01*
X776131Y713220D01*
X776399Y712637D01*
X776681Y712061D01*
X776978Y711492D01*
X777288Y710931D01*
X777612Y710377D01*
X777949Y709831D01*
X778300Y709294D01*
X778663Y708765D01*
X779040Y708246D01*
X779429Y707736D01*
X779579Y707855D01*
X779193Y708361D01*
X778820Y708877D01*
X778459Y709401D01*
X778111Y709935D01*
X777776Y710476D01*
X777455Y711026D01*
X777147Y711583D01*
X776853Y712148D01*
X776572Y712720D01*
X776306Y713298D01*
X776054Y713883D01*
X775816Y714474D01*
X775593Y715070D01*
X775385Y715672D01*
X775191Y716279D01*
X775012Y716890D01*
X774848Y717505D01*
X774699Y718124D01*
X774566Y718747D01*
X774447Y719373D01*
X774344Y720001D01*
X774257Y720632D01*
X774185Y721264D01*
X774128Y721899D01*
X774087Y722534D01*
X774061Y723170D01*
X774051Y723807D01*
X774057Y724444D01*
X774078Y725080D01*
X774114Y725716D01*
X774167Y726351D01*
X774234Y726984D01*
X774317Y727615D01*
X774416Y728244D01*
X774530Y728871D01*
X774659Y729494D01*
X774803Y730114D01*
X774963Y730731D01*
X775137Y731343D01*
X775327Y731951D01*
X775531Y732554D01*
X775750Y733152D01*
X775983Y733745D01*
X776231Y734331D01*
X776493Y734912D01*
X776769Y735486D01*
X777059Y736052D01*
X777363Y736612D01*
X777681Y737164D01*
X778012Y737708D01*
X778356Y738244D01*
X778713Y738771D01*
X779083Y739289D01*
X779465Y739798D01*
X779860Y740298D01*
X780267Y740788D01*
X780686Y741268D01*
X781116Y741737D01*
X781558Y742196D01*
X782011Y742644D01*
X782474Y743080D01*
X782948Y743505D01*
X783433Y743919D01*
X783927Y744320D01*
X784431Y744709D01*
X784944Y745086D01*
X785467Y745450D01*
X785998Y745802D01*
X786537Y746140D01*
X787085Y746465D01*
X787640Y746776D01*
X788203Y747074D01*
X788773Y747358D01*
X789350Y747627D01*
X789933Y747883D01*
X790523Y748124D01*
X791118Y748351D01*
X791718Y748564D01*
X792323Y748761D01*
X792380Y748578D01*
X791779Y748382D01*
X791183Y748171D01*
X790593Y747946D01*
X790008Y747706D01*
X789429Y747452D01*
X788856Y747184D01*
X788290Y746903D01*
X787732Y746607D01*
X787180Y746298D01*
X786637Y745975D01*
X786101Y745640D01*
X785574Y745291D01*
X785055Y744930D01*
X784546Y744556D01*
X784046Y744169D01*
X783555Y743771D01*
X783074Y743360D01*
X782604Y742938D01*
X782144Y742505D01*
X781694Y742061D01*
X781256Y741605D01*
X780829Y741139D01*
X780413Y740663D01*
X780009Y740177D01*
X779617Y739681D01*
X779238Y739176D01*
X778871Y738661D01*
X778516Y738138D01*
X778174Y737606D01*
X777846Y737066D01*
X777531Y736518D01*
X777229Y735963D01*
X776941Y735400D01*
X776667Y734831D01*
X776407Y734255D01*
X776161Y733672D01*
X775929Y733084D01*
X775712Y732491D01*
X775509Y731892D01*
X775321Y731289D01*
X775148Y730681D01*
X774990Y730069D01*
X774846Y729453D01*
X774718Y728834D01*
X774605Y728212D01*
X774507Y727588D01*
X774425Y726961D01*
X774358Y726333D01*
X774306Y725703D01*
X774270Y725072D01*
X774249Y724440D01*
X774243Y723808D01*
X774253Y723176D01*
X774279Y722544D01*
X774319Y721914D01*
X774376Y721284D01*
X774447Y720656D01*
X774534Y720030D01*
X774636Y719406D01*
X774754Y718785D01*
X774887Y718167D01*
X775034Y717553D01*
X775197Y716942D01*
X775374Y716335D01*
X775567Y715733D01*
X775774Y715136D01*
X775995Y714544D01*
X776231Y713957D01*
X776481Y713377D01*
X776745Y712803D01*
X777024Y712235D01*
X777316Y711675D01*
X777621Y711121D01*
X777940Y710576D01*
X778273Y710038D01*
X778618Y709509D01*
X778976Y708988D01*
X779347Y708476D01*
X779730Y707973D01*
X821826Y706904D02*
X820390Y708036D01*
X820772Y708536D01*
X821141Y709046D01*
X821498Y709565D01*
X821842Y710092D01*
X822173Y710628D01*
X822491Y711171D01*
X822795Y711722D01*
X823086Y712281D01*
X823363Y712846D01*
X823627Y713418D01*
X823876Y713996D01*
X824111Y714580D01*
X824331Y715170D01*
X824537Y715765D01*
X824729Y716365D01*
X824906Y716969D01*
X825068Y717577D01*
X825215Y718189D01*
X825347Y718805D01*
X825464Y719424D01*
X825566Y720045D01*
X825652Y720668D01*
X825724Y721294D01*
X825780Y721921D01*
X825821Y722549D01*
X825846Y723178D01*
X825856Y723808D01*
X825850Y724438D01*
X825830Y725067D01*
X825793Y725695D01*
X825742Y726323D01*
X825675Y726949D01*
X825593Y727573D01*
X825495Y728195D01*
X825383Y728815D01*
X825255Y729431D01*
X825112Y730044D01*
X824955Y730654D01*
X824782Y731259D01*
X824595Y731860D01*
X824393Y732457D01*
X824177Y733048D01*
X823946Y733634D01*
X823701Y734214D01*
X823442Y734787D01*
X823169Y735355D01*
X822882Y735915D01*
X822581Y736468D01*
X822267Y737014D01*
X821940Y737552D01*
X821600Y738082D01*
X821247Y738603D01*
X820881Y739116D01*
X820503Y739619D01*
X820113Y740113D01*
X819710Y740597D01*
X819296Y741072D01*
X818871Y741536D01*
X818434Y741989D01*
X817987Y742432D01*
X817528Y742864D01*
X817060Y743284D01*
X816581Y743693D01*
X816092Y744090D01*
X815594Y744475D01*
X815086Y744847D01*
X814570Y745207D01*
X814045Y745555D01*
X813511Y745889D01*
X812970Y746210D01*
X812420Y746518D01*
X811864Y746812D01*
X811300Y747093D01*
X810730Y747360D01*
X810154Y747613D01*
X809571Y747851D01*
X808983Y748076D01*
X808389Y748286D01*
X807791Y748481D01*
X808329Y750228D01*
X808330Y750229D01*
X808971Y750020D01*
X809607Y749795D01*
X810237Y749555D01*
X810862Y749299D01*
X811479Y749029D01*
X812090Y748743D01*
X812694Y748442D01*
X813290Y748127D01*
X813879Y747797D01*
X814459Y747453D01*
X815030Y747095D01*
X815593Y746723D01*
X816146Y746338D01*
X816690Y745938D01*
X817224Y745526D01*
X817748Y745101D01*
X818261Y744663D01*
X818763Y744213D01*
X819254Y743751D01*
X819734Y743276D01*
X820202Y742791D01*
X820657Y742294D01*
X821101Y741785D01*
X821532Y741267D01*
X821950Y740737D01*
X822355Y740198D01*
X822747Y739649D01*
X823126Y739091D01*
X823490Y738523D01*
X823841Y737947D01*
X824177Y737362D01*
X824499Y736770D01*
X824806Y736169D01*
X825099Y735562D01*
X825376Y734947D01*
X825639Y734326D01*
X825886Y733698D01*
X826118Y733065D01*
X826334Y732426D01*
X826535Y731782D01*
X826720Y731133D01*
X826889Y730480D01*
X827042Y729823D01*
X827178Y729163D01*
X827299Y728499D01*
X827403Y727833D01*
X827491Y727164D01*
X827563Y726493D01*
X827618Y725821D01*
X827657Y725148D01*
X827679Y724474D01*
X827685Y723799D01*
X827674Y723125D01*
X827647Y722451D01*
X827603Y721778D01*
X827543Y721106D01*
X827467Y720436D01*
X827374Y719768D01*
X827265Y719102D01*
X827139Y718439D01*
X826998Y717780D01*
X826840Y717124D01*
X826666Y716472D01*
X826477Y715825D01*
X826271Y715183D01*
X826050Y714545D01*
X825814Y713914D01*
X825562Y713288D01*
X825295Y712669D01*
X825013Y712056D01*
X824716Y711450D01*
X824404Y710852D01*
X824078Y710262D01*
X823737Y709680D01*
X823382Y709106D01*
X823014Y708541D01*
X822631Y707986D01*
X822236Y707440D01*
X821827Y706903D01*
X821676Y707022D01*
X822082Y707555D01*
X822475Y708097D01*
X822855Y708649D01*
X823221Y709210D01*
X823573Y709779D01*
X823911Y710357D01*
X824235Y710944D01*
X824545Y711538D01*
X824840Y712139D01*
X825120Y712747D01*
X825385Y713362D01*
X825635Y713984D01*
X825870Y714611D01*
X826089Y715244D01*
X826293Y715882D01*
X826481Y716525D01*
X826654Y717172D01*
X826810Y717823D01*
X826951Y718478D01*
X827076Y719136D01*
X827184Y719797D01*
X827276Y720460D01*
X827352Y721126D01*
X827412Y721793D01*
X827455Y722461D01*
X827482Y723130D01*
X827493Y723800D01*
X827487Y724470D01*
X827465Y725139D01*
X827426Y725808D01*
X827372Y726475D01*
X827301Y727141D01*
X827213Y727805D01*
X827110Y728467D01*
X826990Y729126D01*
X826854Y729782D01*
X826702Y730434D01*
X826535Y731083D01*
X826351Y731727D01*
X826152Y732366D01*
X825937Y733001D01*
X825707Y733630D01*
X825461Y734253D01*
X825201Y734870D01*
X824925Y735480D01*
X824634Y736084D01*
X824329Y736680D01*
X824009Y737269D01*
X823675Y737849D01*
X823327Y738421D01*
X822965Y738985D01*
X822590Y739539D01*
X822201Y740085D01*
X821798Y740620D01*
X821383Y741146D01*
X820955Y741661D01*
X820515Y742165D01*
X820062Y742659D01*
X819597Y743141D01*
X819121Y743612D01*
X818633Y744071D01*
X818135Y744519D01*
X817625Y744953D01*
X817105Y745375D01*
X816575Y745785D01*
X816035Y746181D01*
X815486Y746564D01*
X814927Y746933D01*
X814359Y747289D01*
X813783Y747631D01*
X813199Y747958D01*
X812607Y748271D01*
X812007Y748570D01*
X811401Y748853D01*
X810787Y749122D01*
X810167Y749376D01*
X809541Y749614D01*
X808910Y749838D01*
X808273Y750045D01*
X808217Y749862D01*
X808849Y749656D01*
X809476Y749434D01*
X810097Y749197D01*
X810713Y748945D01*
X811322Y748678D01*
X811924Y748396D01*
X812520Y748100D01*
X813108Y747789D01*
X813688Y747464D01*
X814260Y747125D01*
X814823Y746772D01*
X815378Y746405D01*
X815924Y746025D01*
X816460Y745631D01*
X816986Y745225D01*
X817503Y744805D01*
X818009Y744374D01*
X818504Y743930D01*
X818988Y743474D01*
X819461Y743006D01*
X819922Y742527D01*
X820372Y742037D01*
X820809Y741536D01*
X821234Y741024D01*
X821646Y740503D01*
X822046Y739971D01*
X822432Y739430D01*
X822805Y738879D01*
X823165Y738319D01*
X823510Y737751D01*
X823842Y737175D01*
X824159Y736590D01*
X824462Y735998D01*
X824751Y735399D01*
X825025Y734793D01*
X825284Y734180D01*
X825527Y733562D01*
X825756Y732937D01*
X825969Y732307D01*
X826167Y731672D01*
X826349Y731033D01*
X826516Y730389D01*
X826666Y729741D01*
X826801Y729090D01*
X826920Y728435D01*
X827023Y727778D01*
X827110Y727119D01*
X827180Y726458D01*
X827235Y725795D01*
X827273Y725131D01*
X827295Y724466D01*
X827301Y723801D01*
X827290Y723136D01*
X827263Y722472D01*
X827220Y721808D01*
X827161Y721145D01*
X827086Y720485D01*
X826994Y719826D01*
X826887Y719170D01*
X826763Y718516D01*
X826623Y717866D01*
X826468Y717219D01*
X826297Y716577D01*
X826110Y715938D01*
X825907Y715305D01*
X825689Y714677D01*
X825456Y714054D01*
X825208Y713437D01*
X824945Y712826D01*
X824667Y712222D01*
X824374Y711625D01*
X824066Y711035D01*
X823745Y710453D01*
X823409Y709879D01*
X823059Y709313D01*
X822696Y708756D01*
X822319Y708208D01*
X821928Y707670D01*
X821525Y707141D01*
X821374Y707260D01*
X821775Y707785D01*
X822162Y708320D01*
X822536Y708864D01*
X822897Y709417D01*
X823245Y709978D01*
X823578Y710548D01*
X823897Y711126D01*
X824203Y711712D01*
X824493Y712305D01*
X824770Y712905D01*
X825031Y713511D01*
X825278Y714124D01*
X825509Y714742D01*
X825725Y715366D01*
X825926Y715995D01*
X826112Y716629D01*
X826282Y717267D01*
X826436Y717909D01*
X826575Y718555D01*
X826698Y719203D01*
X826804Y719855D01*
X826895Y720509D01*
X826970Y721165D01*
X827029Y721823D01*
X827072Y722482D01*
X827098Y723142D01*
X827109Y723802D01*
X827103Y724462D01*
X827081Y725122D01*
X827043Y725782D01*
X826989Y726440D01*
X826919Y727096D01*
X826833Y727751D01*
X826731Y728403D01*
X826613Y729053D01*
X826479Y729700D01*
X826329Y730343D01*
X826164Y730982D01*
X825983Y731617D01*
X825787Y732248D01*
X825575Y732873D01*
X825348Y733493D01*
X825106Y734108D01*
X824849Y734716D01*
X824577Y735318D01*
X824290Y735913D01*
X823990Y736501D01*
X823674Y737081D01*
X823345Y737653D01*
X823002Y738217D01*
X822645Y738773D01*
X822275Y739320D01*
X821891Y739857D01*
X821494Y740385D01*
X821085Y740903D01*
X820663Y741411D01*
X820229Y741909D01*
X819783Y742395D01*
X819325Y742871D01*
X818855Y743335D01*
X818374Y743788D01*
X817883Y744229D01*
X817380Y744658D01*
X816868Y745074D01*
X816345Y745477D01*
X815813Y745868D01*
X815271Y746246D01*
X814720Y746610D01*
X814160Y746961D01*
X813592Y747297D01*
X813016Y747620D01*
X812433Y747929D01*
X811842Y748223D01*
X811243Y748503D01*
X810639Y748768D01*
X810027Y749018D01*
X809410Y749254D01*
X808788Y749474D01*
X808160Y749678D01*
X808103Y749495D01*
X808727Y749292D01*
X809345Y749073D01*
X809958Y748840D01*
X810564Y748591D01*
X811165Y748328D01*
X811759Y748050D01*
X812346Y747758D01*
X812925Y747451D01*
X813497Y747131D01*
X814061Y746796D01*
X814617Y746448D01*
X815163Y746087D01*
X815701Y745712D01*
X816230Y745324D01*
X816749Y744923D01*
X817258Y744510D01*
X817756Y744084D01*
X818245Y743647D01*
X818722Y743197D01*
X819188Y742736D01*
X819643Y742264D01*
X820086Y741780D01*
X820517Y741287D01*
X820936Y740782D01*
X821343Y740268D01*
X821736Y739744D01*
X822117Y739210D01*
X822485Y738667D01*
X822839Y738115D01*
X823180Y737555D01*
X823507Y736987D01*
X823820Y736411D01*
X824119Y735827D01*
X824403Y735237D01*
X824673Y734639D01*
X824928Y734035D01*
X825168Y733425D01*
X825394Y732809D01*
X825604Y732188D01*
X825799Y731562D01*
X825979Y730932D01*
X826143Y730297D01*
X826291Y729659D01*
X826424Y729017D01*
X826542Y728371D01*
X826643Y727724D01*
X826729Y727074D01*
X826798Y726422D01*
X826852Y725768D01*
X826890Y725114D01*
X826911Y724458D01*
X826917Y723803D01*
X826906Y723147D01*
X826880Y722492D01*
X826838Y721838D01*
X826779Y721185D01*
X826705Y720534D01*
X826615Y719884D01*
X826509Y719237D01*
X826387Y718593D01*
X826249Y717952D01*
X826096Y717314D01*
X825927Y716681D01*
X825743Y716052D01*
X825543Y715427D01*
X825329Y714808D01*
X825099Y714194D01*
X824854Y713585D01*
X824594Y712983D01*
X824320Y712388D01*
X824032Y711799D01*
X823729Y711218D01*
X823411Y710644D01*
X823080Y710078D01*
X822736Y709520D01*
X822377Y708971D01*
X822006Y708431D01*
X821621Y707900D01*
X821223Y707379D01*
X821073Y707498D01*
X821467Y708015D01*
X821849Y708542D01*
X822218Y709079D01*
X822574Y709624D01*
X822916Y710177D01*
X823245Y710739D01*
X823560Y711309D01*
X823860Y711886D01*
X824147Y712471D01*
X824419Y713062D01*
X824677Y713660D01*
X824920Y714264D01*
X825148Y714873D01*
X825361Y715488D01*
X825559Y716108D01*
X825742Y716733D01*
X825910Y717362D01*
X826062Y717995D01*
X826198Y718631D01*
X826319Y719271D01*
X826425Y719913D01*
X826514Y720558D01*
X826588Y721205D01*
X826646Y721853D01*
X826688Y722503D01*
X826715Y723153D01*
X826725Y723804D01*
X826719Y724455D01*
X826698Y725105D01*
X826660Y725755D01*
X826607Y726404D01*
X826538Y727051D01*
X826453Y727696D01*
X826352Y728340D01*
X826236Y728980D01*
X826104Y729617D01*
X825956Y730251D01*
X825793Y730882D01*
X825615Y731508D01*
X825421Y732129D01*
X825213Y732746D01*
X824989Y733357D01*
X824750Y733962D01*
X824497Y734562D01*
X824229Y735155D01*
X823947Y735742D01*
X823650Y736321D01*
X823339Y736893D01*
X823015Y737457D01*
X822677Y738014D01*
X822325Y738561D01*
X821960Y739100D01*
X821582Y739630D01*
X821191Y740150D01*
X820787Y740661D01*
X820371Y741162D01*
X819943Y741652D01*
X819503Y742132D01*
X819052Y742601D01*
X818589Y743059D01*
X818115Y743505D01*
X817630Y743939D01*
X817135Y744362D01*
X816630Y744772D01*
X816115Y745170D01*
X815590Y745555D01*
X815056Y745927D01*
X814513Y746287D01*
X813961Y746632D01*
X813402Y746964D01*
X812834Y747282D01*
X812258Y747587D01*
X811676Y747877D01*
X811086Y748153D01*
X810490Y748414D01*
X809888Y748661D01*
X809279Y748893D01*
X808666Y749110D01*
X808047Y749311D01*
X807990Y749128D01*
X808605Y748928D01*
X809214Y748712D01*
X809818Y748482D01*
X810416Y748237D01*
X811007Y747978D01*
X811593Y747704D01*
X812171Y747416D01*
X812742Y747114D01*
X813306Y746798D01*
X813862Y746468D01*
X814410Y746125D01*
X814949Y745768D01*
X815479Y745399D01*
X816000Y745016D01*
X816511Y744621D01*
X817013Y744214D01*
X817504Y743795D01*
X817985Y743363D01*
X818456Y742920D01*
X818915Y742466D01*
X819364Y742000D01*
X819800Y741524D01*
X820225Y741037D01*
X820638Y740540D01*
X821039Y740033D01*
X821427Y739516D01*
X821802Y738990D01*
X822165Y738455D01*
X822514Y737912D01*
X822850Y737359D01*
X823172Y736799D01*
X823480Y736231D01*
X823775Y735656D01*
X824055Y735074D01*
X824321Y734485D01*
X824573Y733890D01*
X824809Y733289D01*
X825032Y732682D01*
X825239Y732070D01*
X825431Y731453D01*
X825608Y730831D01*
X825770Y730206D01*
X825916Y729576D01*
X826047Y728943D01*
X826163Y728308D01*
X826263Y727669D01*
X826347Y727029D01*
X826416Y726386D01*
X826469Y725742D01*
X826506Y725097D01*
X826527Y724451D01*
X826533Y723805D01*
X826523Y723159D01*
X826497Y722513D01*
X826455Y721868D01*
X826397Y721224D01*
X826324Y720582D01*
X826235Y719942D01*
X826130Y719305D01*
X826010Y718670D01*
X825875Y718038D01*
X825724Y717410D01*
X825557Y716785D01*
X825376Y716165D01*
X825179Y715549D01*
X824968Y714939D01*
X824741Y714334D01*
X824500Y713734D01*
X824244Y713141D01*
X823974Y712554D01*
X823689Y711973D01*
X823391Y711400D01*
X823078Y710835D01*
X822752Y710277D01*
X822412Y709727D01*
X822059Y709186D01*
X821693Y708654D01*
X821314Y708130D01*
X820922Y707616D01*
X820771Y707735D01*
X821160Y708245D01*
X821536Y708765D01*
X821900Y709293D01*
X822251Y709831D01*
X822588Y710376D01*
X822912Y710930D01*
X823222Y711492D01*
X823518Y712061D01*
X823801Y712637D01*
X824069Y713219D01*
X824323Y713808D01*
X824562Y714403D01*
X824787Y715004D01*
X824997Y715610D01*
X825192Y716221D01*
X825373Y716837D01*
X825538Y717457D01*
X825688Y718081D01*
X825822Y718708D01*
X825941Y719338D01*
X826045Y719971D01*
X826134Y720607D01*
X826206Y721244D01*
X826263Y721883D01*
X826305Y722523D01*
X826331Y723164D01*
X826341Y723806D01*
X826335Y724447D01*
X826314Y725088D01*
X826277Y725729D01*
X826225Y726368D01*
X826157Y727006D01*
X826073Y727642D01*
X825974Y728276D01*
X825859Y728907D01*
X825729Y729535D01*
X825583Y730160D01*
X825423Y730781D01*
X825247Y731398D01*
X825056Y732010D01*
X824851Y732618D01*
X824630Y733220D01*
X824395Y733817D01*
X824145Y734408D01*
X823881Y734993D01*
X823603Y735571D01*
X823311Y736142D01*
X823004Y736706D01*
X822684Y737262D01*
X822351Y737810D01*
X822004Y738349D01*
X821645Y738881D01*
X821272Y739403D01*
X820887Y739916D01*
X820489Y740419D01*
X820079Y740912D01*
X819657Y741396D01*
X819224Y741869D01*
X818779Y742331D01*
X818323Y742782D01*
X817856Y743222D01*
X817378Y743650D01*
X816890Y744066D01*
X816392Y744471D01*
X815885Y744863D01*
X815367Y745242D01*
X814841Y745609D01*
X814306Y745963D01*
X813762Y746304D01*
X813211Y746631D01*
X812651Y746945D01*
X812084Y747245D01*
X811510Y747531D01*
X810929Y747802D01*
X810341Y748060D01*
X809748Y748303D01*
X809148Y748532D01*
X808543Y748745D01*
X807934Y748944D01*
X807877Y748761D01*
X808482Y748563D01*
X809083Y748351D01*
X809678Y748124D01*
X810267Y747883D01*
X810850Y747627D01*
X811427Y747357D01*
X811997Y747074D01*
X812560Y746776D01*
X813115Y746464D01*
X813663Y746140D01*
X814203Y745801D01*
X814734Y745450D01*
X815256Y745086D01*
X815769Y744709D01*
X816273Y744320D01*
X816768Y743918D01*
X817252Y743505D01*
X817726Y743080D01*
X818190Y742643D01*
X818642Y742196D01*
X819084Y741737D01*
X819514Y741267D01*
X819933Y740788D01*
X820340Y740298D01*
X820735Y739798D01*
X821117Y739289D01*
X821487Y738771D01*
X821844Y738244D01*
X822188Y737708D01*
X822519Y737164D01*
X822837Y736612D01*
X823141Y736052D01*
X823431Y735485D01*
X823707Y734911D01*
X823969Y734331D01*
X824217Y733745D01*
X824451Y733152D01*
X824669Y732554D01*
X824874Y731951D01*
X825063Y731343D01*
X825237Y730731D01*
X825397Y730114D01*
X825541Y729494D01*
X825670Y728870D01*
X825784Y728244D01*
X825883Y727615D01*
X825966Y726983D01*
X826034Y726350D01*
X826086Y725716D01*
X826122Y725080D01*
X826143Y724443D01*
X826149Y723807D01*
X826139Y723170D01*
X826113Y722534D01*
X826072Y721898D01*
X826015Y721264D01*
X825943Y720631D01*
X825855Y720000D01*
X825752Y719372D01*
X825634Y718746D01*
X825501Y718124D01*
X825352Y717505D01*
X825188Y716889D01*
X825009Y716278D01*
X824815Y715672D01*
X824607Y715070D01*
X824384Y714473D01*
X824146Y713883D01*
X823894Y713298D01*
X823628Y712719D01*
X823347Y712148D01*
X823053Y711583D01*
X822745Y711026D01*
X822424Y710476D01*
X822089Y709934D01*
X821741Y709401D01*
X821380Y708876D01*
X821006Y708361D01*
X820620Y707854D01*
X820469Y707973D01*
X820853Y708476D01*
X821224Y708988D01*
X821582Y709508D01*
X821927Y710038D01*
X822259Y710575D01*
X822578Y711121D01*
X822884Y711674D01*
X823176Y712235D01*
X823454Y712802D01*
X823719Y713377D01*
X823969Y713957D01*
X824205Y714543D01*
X824426Y715135D01*
X824633Y715733D01*
X824826Y716335D01*
X825003Y716941D01*
X825166Y717552D01*
X825313Y718167D01*
X825446Y718785D01*
X825563Y719406D01*
X825666Y720030D01*
X825753Y720656D01*
X825824Y721284D01*
X825881Y721913D01*
X825921Y722544D01*
X825947Y723176D01*
X825957Y723807D01*
X825951Y724440D01*
X825930Y725071D01*
X825894Y725702D01*
X825842Y726332D01*
X825775Y726961D01*
X825693Y727587D01*
X825595Y728212D01*
X825482Y728834D01*
X825354Y729453D01*
X825210Y730068D01*
X825052Y730680D01*
X824879Y731288D01*
X824691Y731892D01*
X824488Y732490D01*
X824271Y733084D01*
X824039Y733672D01*
X823793Y734254D01*
X823533Y734830D01*
X823259Y735400D01*
X822971Y735962D01*
X822669Y736518D01*
X822354Y737066D01*
X822026Y737606D01*
X821684Y738138D01*
X821330Y738661D01*
X820963Y739175D01*
X820583Y739681D01*
X820191Y740177D01*
X819787Y740663D01*
X819372Y741139D01*
X818944Y741605D01*
X818506Y742060D01*
X818057Y742505D01*
X817597Y742938D01*
X817126Y743360D01*
X816645Y743771D01*
X816155Y744169D01*
X815654Y744555D01*
X815145Y744929D01*
X814626Y745291D01*
X814099Y745640D01*
X813563Y745975D01*
X813020Y746298D01*
X812469Y746607D01*
X811910Y746902D01*
X811344Y747184D01*
X810772Y747452D01*
X810193Y747706D01*
X809608Y747946D01*
X809017Y748171D01*
X808421Y748381D01*
X807820Y748578D01*
D11*
X821045Y707390D02*
X779155Y707390D01*
X777563Y721360D02*
X773551Y721360D01*
X797237Y721360D02*
X802963Y721360D01*
X822637Y721360D02*
X826649Y721360D01*
D10*
X795925Y705485D02*
X795925Y702000D01*
X795924Y702000D02*
X795926Y701929D01*
X795932Y701857D01*
X795941Y701787D01*
X795954Y701717D01*
X795971Y701647D01*
X795992Y701579D01*
X796016Y701512D01*
X796044Y701446D01*
X796075Y701382D01*
X796110Y701319D01*
X796148Y701259D01*
X796189Y701200D01*
X796233Y701144D01*
X796280Y701090D01*
X796329Y701039D01*
X796382Y700991D01*
X796437Y700945D01*
X796494Y700903D01*
X796554Y700863D01*
X796615Y700827D01*
X796679Y700794D01*
X796744Y700765D01*
X796810Y700739D01*
X796878Y700716D01*
X796947Y700697D01*
X797017Y700682D01*
X797087Y700671D01*
X797158Y700663D01*
X797229Y700659D01*
X797301Y700659D01*
X797372Y700663D01*
X797443Y700671D01*
X797513Y700682D01*
X797583Y700697D01*
X797652Y700716D01*
X797720Y700739D01*
X797786Y700765D01*
X797851Y700794D01*
X797915Y700827D01*
X797976Y700863D01*
X798036Y700903D01*
X798093Y700945D01*
X798148Y700991D01*
X798201Y701039D01*
X798250Y701090D01*
X798297Y701144D01*
X798341Y701200D01*
X798382Y701259D01*
X798420Y701319D01*
X798455Y701382D01*
X798486Y701446D01*
X798514Y701512D01*
X798538Y701579D01*
X798559Y701647D01*
X798576Y701717D01*
X798589Y701787D01*
X798598Y701857D01*
X798604Y701929D01*
X798606Y702000D01*
X798606Y705485D01*
X801594Y704413D02*
X802935Y705485D01*
X802935Y700659D01*
X804275Y700659D02*
X801594Y700659D01*
D11*
X625450Y878200D02*
X625450Y885850D01*
X625450Y798200D02*
X625450Y790550D01*
X720750Y790550D01*
X720750Y885850D01*
X625450Y885850D01*
X625450Y878200D02*
X629450Y878200D01*
X629450Y798200D01*
X625450Y798200D01*
D10*
X723265Y831148D02*
X728091Y832756D01*
X723265Y834365D01*
X723265Y837149D02*
X728091Y837149D01*
X723265Y837149D02*
X723265Y838489D01*
X723267Y838560D01*
X723273Y838632D01*
X723282Y838702D01*
X723295Y838772D01*
X723312Y838842D01*
X723333Y838910D01*
X723357Y838977D01*
X723385Y839043D01*
X723416Y839107D01*
X723451Y839170D01*
X723489Y839230D01*
X723530Y839289D01*
X723574Y839345D01*
X723621Y839399D01*
X723670Y839450D01*
X723723Y839498D01*
X723778Y839544D01*
X723835Y839586D01*
X723895Y839626D01*
X723956Y839662D01*
X724020Y839695D01*
X724085Y839724D01*
X724151Y839750D01*
X724219Y839773D01*
X724288Y839792D01*
X724358Y839807D01*
X724428Y839818D01*
X724499Y839826D01*
X724570Y839830D01*
X724642Y839830D01*
X724713Y839826D01*
X724784Y839818D01*
X724854Y839807D01*
X724924Y839792D01*
X724993Y839773D01*
X725061Y839750D01*
X725127Y839724D01*
X725192Y839695D01*
X725256Y839662D01*
X725317Y839626D01*
X725377Y839586D01*
X725434Y839544D01*
X725489Y839498D01*
X725542Y839450D01*
X725591Y839399D01*
X725638Y839345D01*
X725682Y839289D01*
X725723Y839230D01*
X725761Y839170D01*
X725796Y839107D01*
X725827Y839043D01*
X725855Y838977D01*
X725879Y838910D01*
X725900Y838842D01*
X725917Y838772D01*
X725930Y838702D01*
X725939Y838632D01*
X725945Y838560D01*
X725947Y838489D01*
X725946Y838489D02*
X725946Y837149D01*
X725946Y838757D02*
X728091Y839830D01*
X724337Y842571D02*
X723265Y843912D01*
X728091Y843912D01*
X728091Y845252D02*
X728091Y842571D01*
M02*
