G04 EAGLE Gerber RS-274X export*
G75*
%MOMM*%
%FSLAX34Y34*%
%LPD*%
%IN*%
%IPPOS*%
%AMOC8*
5,1,8,0,0,1.08239X$1,22.5*%
G01*
%ADD10C,0.254000*%


D10*
X-990600Y-25400D02*
X266500Y-25400D01*
X266500Y1342900D01*
X-990600Y1342900D01*
X-990600Y-25400D01*
X-901180Y460375D02*
X-900143Y460307D01*
X-899113Y460171D01*
X-898093Y459969D01*
X-897089Y459700D01*
X-896105Y459365D01*
X-895145Y458968D01*
X-894213Y458508D01*
X-893312Y457988D01*
X-892448Y457411D01*
X-891624Y456778D01*
X-890842Y456093D01*
X-890107Y455358D01*
X-889422Y454576D01*
X-888789Y453752D01*
X-888212Y452888D01*
X-887692Y451987D01*
X-887232Y451055D01*
X-886835Y450095D01*
X-886500Y449111D01*
X-886231Y448107D01*
X-886029Y447087D01*
X-885893Y446057D01*
X-885825Y445020D01*
X-885825Y443980D01*
X-885893Y442943D01*
X-886029Y441913D01*
X-886231Y440893D01*
X-886500Y439889D01*
X-886835Y438905D01*
X-887232Y437945D01*
X-887692Y437013D01*
X-888212Y436112D01*
X-888789Y435248D01*
X-889422Y434424D01*
X-890107Y433642D01*
X-890842Y432907D01*
X-891624Y432222D01*
X-892448Y431589D01*
X-893312Y431012D01*
X-894213Y430492D01*
X-895145Y430032D01*
X-896105Y429635D01*
X-897089Y429300D01*
X-898093Y429031D01*
X-899113Y428829D01*
X-900143Y428693D01*
X-901180Y428625D01*
X-902220Y428625D01*
X-903257Y428693D01*
X-904287Y428829D01*
X-905307Y429031D01*
X-906311Y429300D01*
X-907295Y429635D01*
X-908255Y430032D01*
X-909187Y430492D01*
X-910088Y431012D01*
X-910952Y431589D01*
X-911776Y432222D01*
X-912558Y432907D01*
X-913293Y433642D01*
X-913978Y434424D01*
X-914611Y435248D01*
X-915188Y436112D01*
X-915708Y437013D01*
X-916168Y437945D01*
X-916565Y438905D01*
X-916900Y439889D01*
X-917169Y440893D01*
X-917371Y441913D01*
X-917507Y442943D01*
X-917575Y443980D01*
X-917575Y445020D01*
X-917507Y446057D01*
X-917371Y447087D01*
X-917169Y448107D01*
X-916900Y449111D01*
X-916565Y450095D01*
X-916168Y451055D01*
X-915708Y451987D01*
X-915188Y452888D01*
X-914611Y453752D01*
X-913978Y454576D01*
X-913293Y455358D01*
X-912558Y456093D01*
X-911776Y456778D01*
X-910952Y457411D01*
X-910088Y457988D01*
X-909187Y458508D01*
X-908255Y458968D01*
X-907295Y459365D01*
X-906311Y459700D01*
X-905307Y459969D01*
X-904287Y460171D01*
X-903257Y460307D01*
X-902220Y460375D01*
X-901180Y460375D01*
X-748780Y968375D02*
X-747743Y968307D01*
X-746713Y968171D01*
X-745693Y967969D01*
X-744689Y967700D01*
X-743705Y967365D01*
X-742745Y966968D01*
X-741813Y966508D01*
X-740912Y965988D01*
X-740048Y965411D01*
X-739224Y964778D01*
X-738442Y964093D01*
X-737707Y963358D01*
X-737022Y962576D01*
X-736389Y961752D01*
X-735812Y960888D01*
X-735292Y959987D01*
X-734832Y959055D01*
X-734435Y958095D01*
X-734100Y957111D01*
X-733831Y956107D01*
X-733629Y955087D01*
X-733493Y954057D01*
X-733425Y953020D01*
X-733425Y951980D01*
X-733493Y950943D01*
X-733629Y949913D01*
X-733831Y948893D01*
X-734100Y947889D01*
X-734435Y946905D01*
X-734832Y945945D01*
X-735292Y945013D01*
X-735812Y944112D01*
X-736389Y943248D01*
X-737022Y942424D01*
X-737707Y941642D01*
X-738442Y940907D01*
X-739224Y940222D01*
X-740048Y939589D01*
X-740912Y939012D01*
X-741813Y938492D01*
X-742745Y938032D01*
X-743705Y937635D01*
X-744689Y937300D01*
X-745693Y937031D01*
X-746713Y936829D01*
X-747743Y936693D01*
X-748780Y936625D01*
X-749820Y936625D01*
X-750857Y936693D01*
X-751887Y936829D01*
X-752907Y937031D01*
X-753911Y937300D01*
X-754895Y937635D01*
X-755855Y938032D01*
X-756787Y938492D01*
X-757688Y939012D01*
X-758552Y939589D01*
X-759376Y940222D01*
X-760158Y940907D01*
X-760893Y941642D01*
X-761578Y942424D01*
X-762211Y943248D01*
X-762788Y944112D01*
X-763308Y945013D01*
X-763768Y945945D01*
X-764165Y946905D01*
X-764500Y947889D01*
X-764769Y948893D01*
X-764971Y949913D01*
X-765107Y950943D01*
X-765175Y951980D01*
X-765175Y953020D01*
X-765107Y954057D01*
X-764971Y955087D01*
X-764769Y956107D01*
X-764500Y957111D01*
X-764165Y958095D01*
X-763768Y959055D01*
X-763308Y959987D01*
X-762788Y960888D01*
X-762211Y961752D01*
X-761578Y962576D01*
X-760893Y963358D01*
X-760158Y964093D01*
X-759376Y964778D01*
X-758552Y965411D01*
X-757688Y965988D01*
X-756787Y966508D01*
X-755855Y966968D01*
X-754895Y967365D01*
X-753911Y967700D01*
X-752907Y967969D01*
X-751887Y968171D01*
X-750857Y968307D01*
X-749820Y968375D01*
X-748780Y968375D01*
X-469380Y968375D02*
X-468343Y968307D01*
X-467313Y968171D01*
X-466293Y967969D01*
X-465289Y967700D01*
X-464305Y967365D01*
X-463345Y966968D01*
X-462413Y966508D01*
X-461512Y965988D01*
X-460648Y965411D01*
X-459824Y964778D01*
X-459042Y964093D01*
X-458307Y963358D01*
X-457622Y962576D01*
X-456989Y961752D01*
X-456412Y960888D01*
X-455892Y959987D01*
X-455432Y959055D01*
X-455035Y958095D01*
X-454700Y957111D01*
X-454431Y956107D01*
X-454229Y955087D01*
X-454093Y954057D01*
X-454025Y953020D01*
X-454025Y951980D01*
X-454093Y950943D01*
X-454229Y949913D01*
X-454431Y948893D01*
X-454700Y947889D01*
X-455035Y946905D01*
X-455432Y945945D01*
X-455892Y945013D01*
X-456412Y944112D01*
X-456989Y943248D01*
X-457622Y942424D01*
X-458307Y941642D01*
X-459042Y940907D01*
X-459824Y940222D01*
X-460648Y939589D01*
X-461512Y939012D01*
X-462413Y938492D01*
X-463345Y938032D01*
X-464305Y937635D01*
X-465289Y937300D01*
X-466293Y937031D01*
X-467313Y936829D01*
X-468343Y936693D01*
X-469380Y936625D01*
X-470420Y936625D01*
X-471457Y936693D01*
X-472487Y936829D01*
X-473507Y937031D01*
X-474511Y937300D01*
X-475495Y937635D01*
X-476455Y938032D01*
X-477387Y938492D01*
X-478288Y939012D01*
X-479152Y939589D01*
X-479976Y940222D01*
X-480758Y940907D01*
X-481493Y941642D01*
X-482178Y942424D01*
X-482811Y943248D01*
X-483388Y944112D01*
X-483908Y945013D01*
X-484368Y945945D01*
X-484765Y946905D01*
X-485100Y947889D01*
X-485369Y948893D01*
X-485571Y949913D01*
X-485707Y950943D01*
X-485775Y951980D01*
X-485775Y953020D01*
X-485707Y954057D01*
X-485571Y955087D01*
X-485369Y956107D01*
X-485100Y957111D01*
X-484765Y958095D01*
X-484368Y959055D01*
X-483908Y959987D01*
X-483388Y960888D01*
X-482811Y961752D01*
X-482178Y962576D01*
X-481493Y963358D01*
X-480758Y964093D01*
X-479976Y964778D01*
X-479152Y965411D01*
X-478288Y965988D01*
X-477387Y966508D01*
X-476455Y966968D01*
X-475495Y967365D01*
X-474511Y967700D01*
X-473507Y967969D01*
X-472487Y968171D01*
X-471457Y968307D01*
X-470420Y968375D01*
X-469380Y968375D01*
X-418580Y447675D02*
X-417543Y447607D01*
X-416513Y447471D01*
X-415493Y447269D01*
X-414489Y447000D01*
X-413505Y446665D01*
X-412545Y446268D01*
X-411613Y445808D01*
X-410712Y445288D01*
X-409848Y444711D01*
X-409024Y444078D01*
X-408242Y443393D01*
X-407507Y442658D01*
X-406822Y441876D01*
X-406189Y441052D01*
X-405612Y440188D01*
X-405092Y439287D01*
X-404632Y438355D01*
X-404235Y437395D01*
X-403900Y436411D01*
X-403631Y435407D01*
X-403429Y434387D01*
X-403293Y433357D01*
X-403225Y432320D01*
X-403225Y431280D01*
X-403293Y430243D01*
X-403429Y429213D01*
X-403631Y428193D01*
X-403900Y427189D01*
X-404235Y426205D01*
X-404632Y425245D01*
X-405092Y424313D01*
X-405612Y423412D01*
X-406189Y422548D01*
X-406822Y421724D01*
X-407507Y420942D01*
X-408242Y420207D01*
X-409024Y419522D01*
X-409848Y418889D01*
X-410712Y418312D01*
X-411613Y417792D01*
X-412545Y417332D01*
X-413505Y416935D01*
X-414489Y416600D01*
X-415493Y416331D01*
X-416513Y416129D01*
X-417543Y415993D01*
X-418580Y415925D01*
X-419620Y415925D01*
X-420657Y415993D01*
X-421687Y416129D01*
X-422707Y416331D01*
X-423711Y416600D01*
X-424695Y416935D01*
X-425655Y417332D01*
X-426587Y417792D01*
X-427488Y418312D01*
X-428352Y418889D01*
X-429176Y419522D01*
X-429958Y420207D01*
X-430693Y420942D01*
X-431378Y421724D01*
X-432011Y422548D01*
X-432588Y423412D01*
X-433108Y424313D01*
X-433568Y425245D01*
X-433965Y426205D01*
X-434300Y427189D01*
X-434569Y428193D01*
X-434771Y429213D01*
X-434907Y430243D01*
X-434975Y431280D01*
X-434975Y432320D01*
X-434907Y433357D01*
X-434771Y434387D01*
X-434569Y435407D01*
X-434300Y436411D01*
X-433965Y437395D01*
X-433568Y438355D01*
X-433108Y439287D01*
X-432588Y440188D01*
X-432011Y441052D01*
X-431378Y441876D01*
X-430693Y442658D01*
X-429958Y443393D01*
X-429176Y444078D01*
X-428352Y444711D01*
X-427488Y445288D01*
X-426587Y445808D01*
X-425655Y446268D01*
X-424695Y446665D01*
X-423711Y447000D01*
X-422707Y447269D01*
X-421687Y447471D01*
X-420657Y447607D01*
X-419620Y447675D01*
X-418580Y447675D01*
M02*
