M48
;GenerationSoftware,Autodesk,EAGLE,9.6.2*%
;CreationDate,2023-03-25T23:51:46Z*%
FMAT,2
ICI,OFF
METRIC,TZ,000.000
T5C0.700
T4C0.813
T3C0.900
T2C1.016
T1C3.175
%
G90
M71
T1
X-90170Y44450
X-74930Y95250
X-46990Y95250
X-41910Y43180
T2
X-41910Y57150
X-41910Y59690
X-41910Y62230
X-41910Y64770
X-41910Y67310
X-41910Y69850
X-41910Y72390
X-41910Y74930
X-41910Y80010
X-41910Y82550
X-41910Y85090
X-41910Y87630
X-41910Y90170
X-41910Y92710
X-90170Y92710
X-90170Y90170
X-90170Y87630
X-90170Y85090
X-90170Y82550
X-90170Y80010
X-90170Y77470
X-90170Y74930
X-90170Y70866
X-90170Y68326
X-90170Y65786
X-90170Y63246
X-90170Y60706
X-90170Y58166
X-90170Y55626
X-90170Y53086
X-90170Y50546
X-90170Y48006
X-69800Y92850
X-69800Y95390
X-67260Y92850
X-67260Y95390
X-64720Y92850
X-64720Y95390
T3
X-46990Y106680
X-46990Y114300
T4
X-24130Y74930
X-26670Y74930
X-25400Y73025
T5
X-30440Y116760
X-25440Y116760
M30