G04 EAGLE Gerber RS-274X export*
G75*
%MOMM*%
%FSLAX34Y34*%
%LPD*%
%INSilkscreen Top*%
%IPPOS*%
%AMOC8*
5,1,8,0,0,1.08239X$1,22.5*%
G01*
%ADD10C,0.127000*%
%ADD11C,0.203200*%
%ADD12C,0.400000*%
%ADD13R,6.500000X6.250000*%
%ADD14C,0.101600*%
%ADD15C,0.020319*%


D10*
X-943116Y618381D02*
X-943116Y619722D01*
X-943117Y619722D02*
X-943115Y619793D01*
X-943109Y619865D01*
X-943100Y619935D01*
X-943087Y620005D01*
X-943070Y620075D01*
X-943049Y620143D01*
X-943025Y620210D01*
X-942997Y620276D01*
X-942966Y620340D01*
X-942931Y620403D01*
X-942893Y620463D01*
X-942852Y620522D01*
X-942808Y620578D01*
X-942761Y620632D01*
X-942712Y620683D01*
X-942659Y620731D01*
X-942604Y620777D01*
X-942547Y620819D01*
X-942487Y620859D01*
X-942426Y620895D01*
X-942362Y620928D01*
X-942297Y620957D01*
X-942231Y620983D01*
X-942163Y621006D01*
X-942094Y621025D01*
X-942024Y621040D01*
X-941954Y621051D01*
X-941883Y621059D01*
X-941812Y621063D01*
X-941740Y621063D01*
X-941669Y621059D01*
X-941598Y621051D01*
X-941528Y621040D01*
X-941458Y621025D01*
X-941389Y621006D01*
X-941321Y620983D01*
X-941255Y620957D01*
X-941190Y620928D01*
X-941126Y620895D01*
X-941065Y620859D01*
X-941005Y620819D01*
X-940948Y620777D01*
X-940893Y620731D01*
X-940840Y620683D01*
X-940791Y620632D01*
X-940744Y620578D01*
X-940700Y620522D01*
X-940659Y620463D01*
X-940621Y620403D01*
X-940586Y620340D01*
X-940555Y620276D01*
X-940527Y620210D01*
X-940503Y620143D01*
X-940482Y620075D01*
X-940465Y620005D01*
X-940452Y619935D01*
X-940443Y619865D01*
X-940437Y619793D01*
X-940435Y619722D01*
X-940435Y618381D01*
X-945261Y618381D01*
X-945261Y619722D01*
X-945259Y619787D01*
X-945253Y619851D01*
X-945243Y619915D01*
X-945230Y619979D01*
X-945212Y620041D01*
X-945191Y620102D01*
X-945167Y620162D01*
X-945138Y620220D01*
X-945106Y620277D01*
X-945071Y620331D01*
X-945033Y620383D01*
X-944991Y620433D01*
X-944947Y620480D01*
X-944900Y620524D01*
X-944850Y620566D01*
X-944798Y620604D01*
X-944744Y620639D01*
X-944687Y620671D01*
X-944629Y620700D01*
X-944569Y620724D01*
X-944508Y620745D01*
X-944446Y620763D01*
X-944382Y620776D01*
X-944318Y620786D01*
X-944254Y620792D01*
X-944189Y620794D01*
X-944124Y620792D01*
X-944060Y620786D01*
X-943996Y620776D01*
X-943932Y620763D01*
X-943870Y620745D01*
X-943809Y620724D01*
X-943749Y620700D01*
X-943691Y620671D01*
X-943634Y620639D01*
X-943580Y620604D01*
X-943528Y620566D01*
X-943478Y620524D01*
X-943431Y620480D01*
X-943387Y620433D01*
X-943345Y620383D01*
X-943307Y620331D01*
X-943272Y620277D01*
X-943240Y620220D01*
X-943211Y620162D01*
X-943187Y620102D01*
X-943166Y620041D01*
X-943148Y619979D01*
X-943135Y619915D01*
X-943125Y619851D01*
X-943119Y619787D01*
X-943117Y619722D01*
X-944189Y623538D02*
X-945261Y624879D01*
X-940435Y624879D01*
X-940435Y626219D02*
X-940435Y623538D01*
D11*
X-248900Y1117600D02*
X-248658Y1117597D01*
X-248417Y1117588D01*
X-248176Y1117574D01*
X-247935Y1117553D01*
X-247695Y1117527D01*
X-247455Y1117495D01*
X-247216Y1117457D01*
X-246979Y1117414D01*
X-246742Y1117364D01*
X-246507Y1117309D01*
X-246273Y1117249D01*
X-246041Y1117182D01*
X-245810Y1117111D01*
X-245581Y1117033D01*
X-245354Y1116950D01*
X-245129Y1116862D01*
X-244906Y1116768D01*
X-244686Y1116669D01*
X-244468Y1116564D01*
X-244253Y1116455D01*
X-244040Y1116340D01*
X-243830Y1116220D01*
X-243624Y1116095D01*
X-243420Y1115965D01*
X-243219Y1115830D01*
X-243022Y1115690D01*
X-242828Y1115546D01*
X-242638Y1115397D01*
X-242452Y1115243D01*
X-242269Y1115085D01*
X-242090Y1114923D01*
X-241915Y1114756D01*
X-241744Y1114585D01*
X-241577Y1114410D01*
X-241415Y1114231D01*
X-241257Y1114048D01*
X-241103Y1113862D01*
X-240954Y1113672D01*
X-240810Y1113478D01*
X-240670Y1113281D01*
X-240535Y1113080D01*
X-240405Y1112876D01*
X-240280Y1112670D01*
X-240160Y1112460D01*
X-240045Y1112247D01*
X-239936Y1112032D01*
X-239831Y1111814D01*
X-239732Y1111594D01*
X-239638Y1111371D01*
X-239550Y1111146D01*
X-239467Y1110919D01*
X-239389Y1110690D01*
X-239318Y1110459D01*
X-239251Y1110227D01*
X-239191Y1109993D01*
X-239136Y1109758D01*
X-239086Y1109521D01*
X-239043Y1109284D01*
X-239005Y1109045D01*
X-238973Y1108805D01*
X-238947Y1108565D01*
X-238926Y1108324D01*
X-238912Y1108083D01*
X-238903Y1107842D01*
X-238900Y1107600D01*
X-238900Y918100D01*
X-238912Y917114D01*
X-238948Y916128D01*
X-239008Y915144D01*
X-239092Y914161D01*
X-239200Y913181D01*
X-239332Y912203D01*
X-239487Y911229D01*
X-239666Y910259D01*
X-239869Y909294D01*
X-240095Y908334D01*
X-240345Y907380D01*
X-240617Y906432D01*
X-240913Y905491D01*
X-241231Y904558D01*
X-241572Y903632D01*
X-241936Y902715D01*
X-242322Y901808D01*
X-242729Y900910D01*
X-243159Y900022D01*
X-243610Y899144D01*
X-244082Y898279D01*
X-244575Y897424D01*
X-245089Y896583D01*
X-245623Y895753D01*
X-246177Y894938D01*
X-246751Y894135D01*
X-247344Y893347D01*
X-247957Y892574D01*
X-248588Y891816D01*
X-249237Y891074D01*
X-249904Y890347D01*
X-250588Y889637D01*
X-251290Y888944D01*
X-252008Y888268D01*
X-252743Y887610D01*
X-253493Y886970D01*
X-254259Y886348D01*
X-255040Y885745D01*
X-255835Y885162D01*
X-256644Y884598D01*
X-257466Y884053D01*
X-258302Y883529D01*
X-259150Y883026D01*
X-260010Y882543D01*
X-260882Y882082D01*
X-261764Y881641D01*
X-262657Y881223D01*
X-263560Y880826D01*
X-264473Y880451D01*
X-265394Y880099D01*
X-266323Y879769D01*
X-267261Y879462D01*
X-268205Y879178D01*
X-269156Y878917D01*
X-270113Y878679D01*
X-271076Y878465D01*
X-272044Y878274D01*
X-273016Y878106D01*
X-273991Y877963D01*
X-274970Y877843D01*
X-275952Y877747D01*
X-276936Y877675D01*
X-277921Y877627D01*
X-278907Y877603D01*
X-279893Y877603D01*
X-280879Y877627D01*
X-281864Y877675D01*
X-282848Y877747D01*
X-283830Y877843D01*
X-284809Y877963D01*
X-285784Y878106D01*
X-286756Y878274D01*
X-287724Y878465D01*
X-288687Y878679D01*
X-289644Y878917D01*
X-290595Y879178D01*
X-291539Y879462D01*
X-292477Y879769D01*
X-293406Y880099D01*
X-294327Y880451D01*
X-295240Y880826D01*
X-296143Y881223D01*
X-297036Y881641D01*
X-297918Y882082D01*
X-298790Y882543D01*
X-299650Y883026D01*
X-300498Y883529D01*
X-301334Y884053D01*
X-302156Y884598D01*
X-302965Y885162D01*
X-303760Y885745D01*
X-304541Y886348D01*
X-305307Y886970D01*
X-306057Y887610D01*
X-306792Y888268D01*
X-307510Y888944D01*
X-308212Y889637D01*
X-308896Y890347D01*
X-309563Y891074D01*
X-310212Y891816D01*
X-310843Y892574D01*
X-311456Y893347D01*
X-312049Y894135D01*
X-312623Y894938D01*
X-313177Y895753D01*
X-313711Y896583D01*
X-314225Y897424D01*
X-314718Y898279D01*
X-315190Y899144D01*
X-315641Y900022D01*
X-316071Y900910D01*
X-316478Y901808D01*
X-316864Y902715D01*
X-317228Y903632D01*
X-317569Y904558D01*
X-317887Y905491D01*
X-318183Y906432D01*
X-318455Y907380D01*
X-318705Y908334D01*
X-318931Y909294D01*
X-319134Y910259D01*
X-319313Y911229D01*
X-319468Y912203D01*
X-319600Y913181D01*
X-319708Y914161D01*
X-319792Y915144D01*
X-319852Y916128D01*
X-319888Y917114D01*
X-319900Y918100D01*
X-319900Y1107600D01*
X-319897Y1107842D01*
X-319888Y1108083D01*
X-319874Y1108324D01*
X-319853Y1108565D01*
X-319827Y1108805D01*
X-319795Y1109045D01*
X-319757Y1109284D01*
X-319714Y1109521D01*
X-319664Y1109758D01*
X-319609Y1109993D01*
X-319549Y1110227D01*
X-319482Y1110459D01*
X-319411Y1110690D01*
X-319333Y1110919D01*
X-319250Y1111146D01*
X-319162Y1111371D01*
X-319068Y1111594D01*
X-318969Y1111814D01*
X-318864Y1112032D01*
X-318755Y1112247D01*
X-318640Y1112460D01*
X-318520Y1112670D01*
X-318395Y1112876D01*
X-318265Y1113080D01*
X-318130Y1113281D01*
X-317990Y1113478D01*
X-317846Y1113672D01*
X-317697Y1113862D01*
X-317543Y1114048D01*
X-317385Y1114231D01*
X-317223Y1114410D01*
X-317056Y1114585D01*
X-316885Y1114756D01*
X-316710Y1114923D01*
X-316531Y1115085D01*
X-316348Y1115243D01*
X-316162Y1115397D01*
X-315972Y1115546D01*
X-315778Y1115690D01*
X-315581Y1115830D01*
X-315380Y1115965D01*
X-315176Y1116095D01*
X-314970Y1116220D01*
X-314760Y1116340D01*
X-314547Y1116455D01*
X-314332Y1116564D01*
X-314114Y1116669D01*
X-313894Y1116768D01*
X-313671Y1116862D01*
X-313446Y1116950D01*
X-313219Y1117033D01*
X-312990Y1117111D01*
X-312759Y1117182D01*
X-312527Y1117249D01*
X-312293Y1117309D01*
X-312058Y1117364D01*
X-311821Y1117414D01*
X-311584Y1117457D01*
X-311345Y1117495D01*
X-311105Y1117527D01*
X-310865Y1117553D01*
X-310624Y1117574D01*
X-310383Y1117588D01*
X-310142Y1117597D01*
X-309900Y1117600D01*
X-248900Y1117600D01*
D12*
X-254400Y1119100D02*
X-254400Y1158850D01*
X-304400Y1158850D02*
X-304400Y1119100D01*
D13*
X-279400Y926350D03*
D14*
X-234442Y1081179D02*
X-222758Y1081179D01*
X-234442Y1081179D02*
X-234442Y1084425D01*
X-234440Y1084538D01*
X-234434Y1084651D01*
X-234424Y1084764D01*
X-234410Y1084877D01*
X-234393Y1084989D01*
X-234371Y1085100D01*
X-234346Y1085210D01*
X-234316Y1085320D01*
X-234283Y1085428D01*
X-234246Y1085535D01*
X-234206Y1085641D01*
X-234161Y1085745D01*
X-234113Y1085848D01*
X-234062Y1085949D01*
X-234007Y1086048D01*
X-233949Y1086145D01*
X-233887Y1086240D01*
X-233822Y1086333D01*
X-233754Y1086423D01*
X-233683Y1086511D01*
X-233608Y1086597D01*
X-233531Y1086680D01*
X-233451Y1086760D01*
X-233368Y1086837D01*
X-233282Y1086912D01*
X-233194Y1086983D01*
X-233104Y1087051D01*
X-233011Y1087116D01*
X-232916Y1087178D01*
X-232819Y1087236D01*
X-232720Y1087291D01*
X-232619Y1087342D01*
X-232516Y1087390D01*
X-232412Y1087435D01*
X-232306Y1087475D01*
X-232199Y1087512D01*
X-232091Y1087545D01*
X-231981Y1087575D01*
X-231871Y1087600D01*
X-231760Y1087622D01*
X-231648Y1087639D01*
X-231535Y1087653D01*
X-231422Y1087663D01*
X-231309Y1087669D01*
X-231196Y1087671D01*
X-231083Y1087669D01*
X-230970Y1087663D01*
X-230857Y1087653D01*
X-230744Y1087639D01*
X-230632Y1087622D01*
X-230521Y1087600D01*
X-230411Y1087575D01*
X-230301Y1087545D01*
X-230193Y1087512D01*
X-230086Y1087475D01*
X-229980Y1087435D01*
X-229876Y1087390D01*
X-229773Y1087342D01*
X-229672Y1087291D01*
X-229573Y1087236D01*
X-229476Y1087178D01*
X-229381Y1087116D01*
X-229288Y1087051D01*
X-229198Y1086983D01*
X-229110Y1086912D01*
X-229024Y1086837D01*
X-228941Y1086760D01*
X-228861Y1086680D01*
X-228784Y1086597D01*
X-228709Y1086511D01*
X-228638Y1086423D01*
X-228570Y1086333D01*
X-228505Y1086240D01*
X-228443Y1086145D01*
X-228385Y1086048D01*
X-228330Y1085949D01*
X-228279Y1085848D01*
X-228231Y1085745D01*
X-228186Y1085641D01*
X-228146Y1085535D01*
X-228109Y1085428D01*
X-228076Y1085320D01*
X-228046Y1085210D01*
X-228021Y1085100D01*
X-227999Y1084989D01*
X-227982Y1084877D01*
X-227968Y1084764D01*
X-227958Y1084651D01*
X-227952Y1084538D01*
X-227950Y1084425D01*
X-227951Y1084425D02*
X-227951Y1081179D01*
X-222758Y1092440D02*
X-234442Y1092440D01*
X-229249Y1092440D02*
X-229249Y1098931D01*
X-234442Y1098931D02*
X-222758Y1098931D01*
X-231846Y1104251D02*
X-234442Y1107496D01*
X-222758Y1107496D01*
X-222758Y1104251D02*
X-222758Y1110742D01*
D11*
X-477520Y1130300D02*
X-477520Y1079500D01*
X-477520Y1130300D02*
X-469900Y1130300D01*
X-462280Y1130300D01*
X-462280Y1079500D01*
X-469900Y1079500D01*
X-477520Y1079500D01*
X-469900Y1130300D02*
X-469900Y1132840D01*
X-469900Y1079500D02*
X-469900Y1076960D01*
D10*
X-480695Y1100848D02*
X-485521Y1100848D01*
X-485521Y1102189D01*
X-485519Y1102260D01*
X-485513Y1102332D01*
X-485504Y1102402D01*
X-485491Y1102472D01*
X-485474Y1102542D01*
X-485453Y1102610D01*
X-485429Y1102677D01*
X-485401Y1102743D01*
X-485370Y1102807D01*
X-485335Y1102870D01*
X-485297Y1102930D01*
X-485256Y1102989D01*
X-485212Y1103045D01*
X-485165Y1103099D01*
X-485116Y1103150D01*
X-485063Y1103198D01*
X-485008Y1103244D01*
X-484951Y1103286D01*
X-484891Y1103326D01*
X-484830Y1103362D01*
X-484766Y1103395D01*
X-484701Y1103424D01*
X-484635Y1103450D01*
X-484567Y1103473D01*
X-484498Y1103492D01*
X-484428Y1103507D01*
X-484358Y1103518D01*
X-484287Y1103526D01*
X-484216Y1103530D01*
X-484144Y1103530D01*
X-484073Y1103526D01*
X-484002Y1103518D01*
X-483932Y1103507D01*
X-483862Y1103492D01*
X-483793Y1103473D01*
X-483725Y1103450D01*
X-483659Y1103424D01*
X-483594Y1103395D01*
X-483530Y1103362D01*
X-483469Y1103326D01*
X-483409Y1103286D01*
X-483352Y1103244D01*
X-483297Y1103198D01*
X-483244Y1103150D01*
X-483195Y1103099D01*
X-483148Y1103045D01*
X-483104Y1102989D01*
X-483063Y1102930D01*
X-483025Y1102870D01*
X-482990Y1102807D01*
X-482959Y1102743D01*
X-482931Y1102677D01*
X-482907Y1102610D01*
X-482886Y1102542D01*
X-482869Y1102472D01*
X-482856Y1102402D01*
X-482847Y1102332D01*
X-482841Y1102260D01*
X-482839Y1102189D01*
X-482840Y1102189D02*
X-482840Y1100848D01*
X-482840Y1102457D02*
X-480695Y1103529D01*
X-484449Y1106271D02*
X-485521Y1107611D01*
X-480695Y1107611D01*
X-480695Y1106271D02*
X-480695Y1108952D01*
D15*
X-245771Y722972D02*
X-246310Y724719D01*
X-245711Y724914D01*
X-245118Y725124D01*
X-244529Y725348D01*
X-243947Y725587D01*
X-243370Y725840D01*
X-242800Y726107D01*
X-242236Y726387D01*
X-241680Y726682D01*
X-241131Y726990D01*
X-240589Y727311D01*
X-240056Y727645D01*
X-239531Y727993D01*
X-239014Y728353D01*
X-238506Y728725D01*
X-238008Y729110D01*
X-237519Y729507D01*
X-237041Y729916D01*
X-236572Y730336D01*
X-236114Y730768D01*
X-235666Y731210D01*
X-235229Y731664D01*
X-234804Y732128D01*
X-234390Y732602D01*
X-233988Y733087D01*
X-233597Y733581D01*
X-233219Y734084D01*
X-232853Y734597D01*
X-232500Y735118D01*
X-232160Y735648D01*
X-231833Y736185D01*
X-231519Y736731D01*
X-231218Y737284D01*
X-230932Y737845D01*
X-230658Y738412D01*
X-230399Y738986D01*
X-230154Y739566D01*
X-229923Y740152D01*
X-229707Y740743D01*
X-229505Y741339D01*
X-229318Y741940D01*
X-229145Y742546D01*
X-228988Y743155D01*
X-228845Y743769D01*
X-228717Y744385D01*
X-228605Y745005D01*
X-228507Y745627D01*
X-228425Y746251D01*
X-228358Y746877D01*
X-228307Y747504D01*
X-228270Y748133D01*
X-228250Y748762D01*
X-228244Y749392D01*
X-228254Y750021D01*
X-228279Y750650D01*
X-228320Y751278D01*
X-228376Y751906D01*
X-228447Y752531D01*
X-228534Y753155D01*
X-228636Y753776D01*
X-228753Y754395D01*
X-228885Y755010D01*
X-229032Y755622D01*
X-229194Y756231D01*
X-229371Y756835D01*
X-229562Y757435D01*
X-229769Y758030D01*
X-229989Y758619D01*
X-230224Y759203D01*
X-230473Y759782D01*
X-230737Y760354D01*
X-231014Y760919D01*
X-231304Y761477D01*
X-231609Y762028D01*
X-231927Y762572D01*
X-232258Y763107D01*
X-232602Y763635D01*
X-232958Y764153D01*
X-233328Y764663D01*
X-233710Y765164D01*
X-232274Y766296D01*
X-232273Y766296D01*
X-231864Y765760D01*
X-231468Y765214D01*
X-231086Y764658D01*
X-230717Y764093D01*
X-230362Y763520D01*
X-230022Y762938D01*
X-229696Y762347D01*
X-229384Y761749D01*
X-229087Y761144D01*
X-228805Y760531D01*
X-228538Y759912D01*
X-228286Y759286D01*
X-228049Y758654D01*
X-227828Y758017D01*
X-227623Y757374D01*
X-227434Y756727D01*
X-227260Y756075D01*
X-227102Y755420D01*
X-226961Y754760D01*
X-226835Y754097D01*
X-226726Y753432D01*
X-226633Y752764D01*
X-226557Y752094D01*
X-226497Y751422D01*
X-226453Y750749D01*
X-226426Y750075D01*
X-226415Y749400D01*
X-226421Y748726D01*
X-226443Y748052D01*
X-226482Y747378D01*
X-226537Y746706D01*
X-226609Y746036D01*
X-226697Y745367D01*
X-226801Y744700D01*
X-226922Y744037D01*
X-227059Y743376D01*
X-227211Y742719D01*
X-227380Y742066D01*
X-227565Y741418D01*
X-227766Y740774D01*
X-227982Y740135D01*
X-228214Y739502D01*
X-228461Y738874D01*
X-228724Y738253D01*
X-229001Y737638D01*
X-229294Y737030D01*
X-229601Y736430D01*
X-229923Y735837D01*
X-230260Y735253D01*
X-230610Y734676D01*
X-230975Y734109D01*
X-231353Y733551D01*
X-231745Y733002D01*
X-232150Y732462D01*
X-232568Y731933D01*
X-232999Y731414D01*
X-233443Y730906D01*
X-233899Y730409D01*
X-234366Y729923D01*
X-234846Y729449D01*
X-235337Y728987D01*
X-235839Y728536D01*
X-236352Y728099D01*
X-236876Y727674D01*
X-237410Y727261D01*
X-237954Y726862D01*
X-238507Y726477D01*
X-239070Y726105D01*
X-239641Y725747D01*
X-240222Y725403D01*
X-240810Y725073D01*
X-241406Y724758D01*
X-242010Y724457D01*
X-242621Y724171D01*
X-243239Y723901D01*
X-243863Y723645D01*
X-244493Y723405D01*
X-245129Y723180D01*
X-245770Y722971D01*
X-245827Y723155D01*
X-245190Y723362D01*
X-244559Y723585D01*
X-243933Y723824D01*
X-243313Y724078D01*
X-242700Y724346D01*
X-242093Y724630D01*
X-241493Y724929D01*
X-240901Y725242D01*
X-240317Y725569D01*
X-239741Y725911D01*
X-239173Y726266D01*
X-238615Y726636D01*
X-238065Y727019D01*
X-237525Y727415D01*
X-236995Y727824D01*
X-236475Y728246D01*
X-235965Y728681D01*
X-235467Y729128D01*
X-234979Y729587D01*
X-234503Y730058D01*
X-234038Y730541D01*
X-233586Y731034D01*
X-233145Y731539D01*
X-232717Y732054D01*
X-232302Y732580D01*
X-231900Y733115D01*
X-231510Y733660D01*
X-231135Y734215D01*
X-230773Y734778D01*
X-230425Y735351D01*
X-230091Y735931D01*
X-229771Y736520D01*
X-229466Y737116D01*
X-229175Y737719D01*
X-228900Y738330D01*
X-228639Y738947D01*
X-228393Y739570D01*
X-228163Y740199D01*
X-227948Y740833D01*
X-227749Y741473D01*
X-227566Y742117D01*
X-227398Y742765D01*
X-227246Y743418D01*
X-227110Y744073D01*
X-226990Y744732D01*
X-226887Y745394D01*
X-226800Y746058D01*
X-226728Y746724D01*
X-226674Y747392D01*
X-226635Y748060D01*
X-226613Y748730D01*
X-226607Y749399D01*
X-226618Y750069D01*
X-226645Y750738D01*
X-226688Y751407D01*
X-226748Y752074D01*
X-226824Y752739D01*
X-226916Y753403D01*
X-227024Y754064D01*
X-227149Y754722D01*
X-227289Y755377D01*
X-227446Y756028D01*
X-227618Y756675D01*
X-227807Y757318D01*
X-228010Y757956D01*
X-228230Y758589D01*
X-228465Y759216D01*
X-228715Y759837D01*
X-228980Y760452D01*
X-229260Y761061D01*
X-229555Y761662D01*
X-229865Y762256D01*
X-230188Y762842D01*
X-230527Y763420D01*
X-230879Y763990D01*
X-231245Y764551D01*
X-231625Y765103D01*
X-232018Y765645D01*
X-232424Y766177D01*
X-232575Y766059D01*
X-232171Y765530D01*
X-231781Y764991D01*
X-231404Y764443D01*
X-231041Y763886D01*
X-230691Y763321D01*
X-230355Y762747D01*
X-230033Y762165D01*
X-229726Y761575D01*
X-229433Y760978D01*
X-229155Y760374D01*
X-228892Y759763D01*
X-228643Y759146D01*
X-228410Y758523D01*
X-228193Y757895D01*
X-227990Y757261D01*
X-227803Y756623D01*
X-227632Y755980D01*
X-227477Y755334D01*
X-227337Y754683D01*
X-227213Y754030D01*
X-227106Y753374D01*
X-227014Y752715D01*
X-226939Y752054D01*
X-226880Y751392D01*
X-226837Y750728D01*
X-226810Y750064D01*
X-226799Y749399D01*
X-226805Y748733D01*
X-226827Y748069D01*
X-226865Y747405D01*
X-226920Y746742D01*
X-226990Y746081D01*
X-227077Y745421D01*
X-227180Y744764D01*
X-227299Y744110D01*
X-227434Y743459D01*
X-227584Y742811D01*
X-227751Y742167D01*
X-227933Y741527D01*
X-228131Y740893D01*
X-228344Y740263D01*
X-228573Y739638D01*
X-228817Y739019D01*
X-229076Y738407D01*
X-229349Y737801D01*
X-229638Y737201D01*
X-229941Y736609D01*
X-230258Y736025D01*
X-230590Y735449D01*
X-230936Y734880D01*
X-231295Y734321D01*
X-231668Y733770D01*
X-232054Y733229D01*
X-232454Y732697D01*
X-232866Y732175D01*
X-233291Y731664D01*
X-233728Y731163D01*
X-234178Y730673D01*
X-234639Y730194D01*
X-235112Y729726D01*
X-235596Y729270D01*
X-236092Y728826D01*
X-236597Y728394D01*
X-237114Y727975D01*
X-237640Y727569D01*
X-238176Y727175D01*
X-238722Y726795D01*
X-239277Y726428D01*
X-239840Y726075D01*
X-240412Y725736D01*
X-240993Y725411D01*
X-241580Y725100D01*
X-242176Y724803D01*
X-242778Y724522D01*
X-243387Y724255D01*
X-244003Y724003D01*
X-244624Y723766D01*
X-245251Y723544D01*
X-245884Y723338D01*
X-245940Y723522D01*
X-245312Y723726D01*
X-244690Y723946D01*
X-244073Y724182D01*
X-243462Y724432D01*
X-242857Y724697D01*
X-242259Y724977D01*
X-241668Y725271D01*
X-241084Y725580D01*
X-240508Y725902D01*
X-239940Y726239D01*
X-239380Y726590D01*
X-238829Y726954D01*
X-238288Y727332D01*
X-237755Y727722D01*
X-237233Y728126D01*
X-236720Y728542D01*
X-236218Y728971D01*
X-235726Y729412D01*
X-235245Y729864D01*
X-234776Y730329D01*
X-234318Y730804D01*
X-233871Y731291D01*
X-233437Y731788D01*
X-233015Y732296D01*
X-232606Y732815D01*
X-232209Y733342D01*
X-231825Y733880D01*
X-231455Y734427D01*
X-231098Y734982D01*
X-230755Y735546D01*
X-230426Y736119D01*
X-230111Y736699D01*
X-229810Y737287D01*
X-229523Y737882D01*
X-229251Y738484D01*
X-228994Y739092D01*
X-228752Y739706D01*
X-228525Y740326D01*
X-228314Y740952D01*
X-228117Y741582D01*
X-227936Y742217D01*
X-227771Y742857D01*
X-227621Y743500D01*
X-227487Y744147D01*
X-227369Y744796D01*
X-227267Y745449D01*
X-227181Y746103D01*
X-227111Y746760D01*
X-227057Y747418D01*
X-227019Y748077D01*
X-226997Y748737D01*
X-226991Y749398D01*
X-227002Y750058D01*
X-227028Y750718D01*
X-227071Y751377D01*
X-227130Y752034D01*
X-227205Y752690D01*
X-227296Y753345D01*
X-227402Y753996D01*
X-227525Y754645D01*
X-227664Y755291D01*
X-227818Y755933D01*
X-227988Y756571D01*
X-228174Y757205D01*
X-228375Y757834D01*
X-228591Y758457D01*
X-228822Y759076D01*
X-229069Y759689D01*
X-229330Y760295D01*
X-229606Y760895D01*
X-229897Y761488D01*
X-230202Y762073D01*
X-230522Y762651D01*
X-230855Y763221D01*
X-231202Y763783D01*
X-231563Y764336D01*
X-231938Y764880D01*
X-232325Y765415D01*
X-232725Y765940D01*
X-232876Y765821D01*
X-232479Y765299D01*
X-232094Y764769D01*
X-231722Y764228D01*
X-231364Y763679D01*
X-231019Y763122D01*
X-230688Y762556D01*
X-230371Y761982D01*
X-230068Y761400D01*
X-229780Y760812D01*
X-229505Y760216D01*
X-229246Y759614D01*
X-229001Y759006D01*
X-228771Y758392D01*
X-228557Y757772D01*
X-228357Y757148D01*
X-228173Y756519D01*
X-228004Y755885D01*
X-227851Y755248D01*
X-227713Y754607D01*
X-227591Y753962D01*
X-227485Y753315D01*
X-227395Y752666D01*
X-227321Y752015D01*
X-227262Y751362D01*
X-227220Y750707D01*
X-227194Y750052D01*
X-227183Y749397D01*
X-227189Y748741D01*
X-227211Y748086D01*
X-227248Y747431D01*
X-227302Y746778D01*
X-227372Y746126D01*
X-227457Y745476D01*
X-227558Y744828D01*
X-227676Y744183D01*
X-227809Y743541D01*
X-227957Y742902D01*
X-228121Y742268D01*
X-228301Y741637D01*
X-228496Y741011D01*
X-228706Y740390D01*
X-228932Y739775D01*
X-229172Y739165D01*
X-229427Y738561D01*
X-229697Y737963D01*
X-229982Y737372D01*
X-230280Y736789D01*
X-230593Y736213D01*
X-230920Y735644D01*
X-231261Y735084D01*
X-231615Y734533D01*
X-231983Y733990D01*
X-232364Y733456D01*
X-232758Y732932D01*
X-233164Y732417D01*
X-233583Y731913D01*
X-234014Y731419D01*
X-234457Y730936D01*
X-234912Y730464D01*
X-235378Y730003D01*
X-235856Y729553D01*
X-236344Y729116D01*
X-236843Y728690D01*
X-237351Y728277D01*
X-237870Y727876D01*
X-238399Y727488D01*
X-238937Y727113D01*
X-239484Y726752D01*
X-240039Y726403D01*
X-240603Y726069D01*
X-241175Y725748D01*
X-241755Y725442D01*
X-242342Y725150D01*
X-242936Y724872D01*
X-243536Y724609D01*
X-244143Y724360D01*
X-244755Y724127D01*
X-245374Y723908D01*
X-245997Y723705D01*
X-246053Y723889D01*
X-245435Y724090D01*
X-244821Y724307D01*
X-244213Y724539D01*
X-243610Y724786D01*
X-243014Y725047D01*
X-242425Y725323D01*
X-241842Y725613D01*
X-241266Y725917D01*
X-240699Y726236D01*
X-240139Y726568D01*
X-239587Y726913D01*
X-239044Y727272D01*
X-238510Y727645D01*
X-237986Y728030D01*
X-237470Y728428D01*
X-236965Y728838D01*
X-236470Y729260D01*
X-235985Y729695D01*
X-235511Y730141D01*
X-235049Y730599D01*
X-234597Y731068D01*
X-234157Y731548D01*
X-233729Y732038D01*
X-233313Y732539D01*
X-232910Y733049D01*
X-232519Y733570D01*
X-232141Y734100D01*
X-231775Y734638D01*
X-231424Y735186D01*
X-231085Y735742D01*
X-230761Y736307D01*
X-230450Y736878D01*
X-230154Y737458D01*
X-229871Y738044D01*
X-229603Y738638D01*
X-229350Y739237D01*
X-229111Y739843D01*
X-228887Y740454D01*
X-228679Y741071D01*
X-228485Y741692D01*
X-228307Y742318D01*
X-228144Y742948D01*
X-227996Y743582D01*
X-227864Y744220D01*
X-227748Y744860D01*
X-227647Y745503D01*
X-227562Y746148D01*
X-227493Y746796D01*
X-227440Y747444D01*
X-227402Y748094D01*
X-227381Y748745D01*
X-227375Y749396D01*
X-227385Y750047D01*
X-227412Y750697D01*
X-227454Y751347D01*
X-227512Y751995D01*
X-227586Y752642D01*
X-227675Y753286D01*
X-227780Y753929D01*
X-227901Y754568D01*
X-228038Y755205D01*
X-228190Y755838D01*
X-228358Y756467D01*
X-228540Y757091D01*
X-228739Y757711D01*
X-228952Y758326D01*
X-229180Y758936D01*
X-229423Y759540D01*
X-229681Y760138D01*
X-229953Y760729D01*
X-230239Y761313D01*
X-230540Y761891D01*
X-230855Y762460D01*
X-231184Y763022D01*
X-231526Y763576D01*
X-231881Y764121D01*
X-232250Y764657D01*
X-232632Y765184D01*
X-233027Y765702D01*
X-233178Y765583D01*
X-232786Y765069D01*
X-232407Y764546D01*
X-232041Y764014D01*
X-231688Y763472D01*
X-231348Y762923D01*
X-231021Y762365D01*
X-230709Y761799D01*
X-230410Y761226D01*
X-230126Y760646D01*
X-229856Y760059D01*
X-229600Y759466D01*
X-229359Y758866D01*
X-229132Y758261D01*
X-228921Y757650D01*
X-228724Y757035D01*
X-228542Y756414D01*
X-228376Y755790D01*
X-228225Y755162D01*
X-228090Y754530D01*
X-227969Y753895D01*
X-227865Y753257D01*
X-227776Y752617D01*
X-227703Y751975D01*
X-227645Y751332D01*
X-227603Y750687D01*
X-227577Y750041D01*
X-227567Y749395D01*
X-227573Y748749D01*
X-227594Y748103D01*
X-227631Y747458D01*
X-227684Y746814D01*
X-227753Y746171D01*
X-227837Y745530D01*
X-227937Y744892D01*
X-228053Y744256D01*
X-228184Y743623D01*
X-228330Y742994D01*
X-228492Y742368D01*
X-228669Y741747D01*
X-228861Y741130D01*
X-229069Y740518D01*
X-229291Y739911D01*
X-229528Y739310D01*
X-229779Y738715D01*
X-230045Y738126D01*
X-230325Y737543D01*
X-230620Y736968D01*
X-230928Y736400D01*
X-231251Y735840D01*
X-231586Y735288D01*
X-231936Y734744D01*
X-232298Y734209D01*
X-232673Y733683D01*
X-233062Y733167D01*
X-233462Y732660D01*
X-233875Y732163D01*
X-234300Y731676D01*
X-234737Y731199D01*
X-235185Y730734D01*
X-235644Y730280D01*
X-236115Y729837D01*
X-236596Y729405D01*
X-237088Y728986D01*
X-237589Y728578D01*
X-238101Y728183D01*
X-238622Y727801D01*
X-239152Y727431D01*
X-239691Y727075D01*
X-240238Y726732D01*
X-240794Y726402D01*
X-241358Y726086D01*
X-241929Y725784D01*
X-242507Y725496D01*
X-243093Y725222D01*
X-243685Y724963D01*
X-244283Y724718D01*
X-244886Y724488D01*
X-245496Y724272D01*
X-246110Y724072D01*
X-246167Y724255D01*
X-245557Y724454D01*
X-244952Y724668D01*
X-244353Y724897D01*
X-243759Y725140D01*
X-243171Y725397D01*
X-242590Y725669D01*
X-242016Y725955D01*
X-241449Y726255D01*
X-240890Y726569D01*
X-240338Y726896D01*
X-239794Y727237D01*
X-239259Y727591D01*
X-238733Y727957D01*
X-238216Y728337D01*
X-237708Y728729D01*
X-237210Y729134D01*
X-236722Y729550D01*
X-236244Y729978D01*
X-235777Y730418D01*
X-235321Y730869D01*
X-234876Y731331D01*
X-234443Y731804D01*
X-234021Y732287D01*
X-233611Y732781D01*
X-233213Y733284D01*
X-232828Y733797D01*
X-232456Y734319D01*
X-232096Y734850D01*
X-231749Y735390D01*
X-231416Y735938D01*
X-231096Y736494D01*
X-230790Y737058D01*
X-230497Y737629D01*
X-230219Y738207D01*
X-229955Y738792D01*
X-229705Y739382D01*
X-229470Y739979D01*
X-229250Y740582D01*
X-229044Y741189D01*
X-228853Y741802D01*
X-228677Y742419D01*
X-228517Y743040D01*
X-228371Y743665D01*
X-228241Y744293D01*
X-228126Y744924D01*
X-228027Y745558D01*
X-227944Y746194D01*
X-227875Y746832D01*
X-227823Y747471D01*
X-227786Y748111D01*
X-227765Y748752D01*
X-227759Y749394D01*
X-227769Y750035D01*
X-227795Y750676D01*
X-227837Y751316D01*
X-227894Y751955D01*
X-227966Y752593D01*
X-228055Y753228D01*
X-228158Y753861D01*
X-228278Y754492D01*
X-228412Y755119D01*
X-228562Y755742D01*
X-228727Y756362D01*
X-228907Y756978D01*
X-229103Y757589D01*
X-229313Y758195D01*
X-229537Y758796D01*
X-229777Y759391D01*
X-230031Y759980D01*
X-230299Y760563D01*
X-230581Y761139D01*
X-230878Y761708D01*
X-231188Y762269D01*
X-231512Y762823D01*
X-231849Y763369D01*
X-232200Y763906D01*
X-232563Y764435D01*
X-232940Y764954D01*
X-233329Y765464D01*
X-233479Y765345D01*
X-233093Y764839D01*
X-232720Y764323D01*
X-232359Y763799D01*
X-232011Y763265D01*
X-231676Y762724D01*
X-231355Y762174D01*
X-231047Y761617D01*
X-230753Y761052D01*
X-230472Y760480D01*
X-230206Y759902D01*
X-229954Y759317D01*
X-229716Y758726D01*
X-229493Y758130D01*
X-229285Y757528D01*
X-229091Y756921D01*
X-228912Y756310D01*
X-228748Y755695D01*
X-228599Y755076D01*
X-228466Y754453D01*
X-228347Y753827D01*
X-228244Y753199D01*
X-228157Y752568D01*
X-228085Y751936D01*
X-228028Y751301D01*
X-227987Y750666D01*
X-227961Y750030D01*
X-227951Y749393D01*
X-227957Y748756D01*
X-227978Y748120D01*
X-228014Y747484D01*
X-228067Y746849D01*
X-228134Y746216D01*
X-228217Y745585D01*
X-228316Y744956D01*
X-228430Y744329D01*
X-228559Y743706D01*
X-228703Y743086D01*
X-228863Y742469D01*
X-229037Y741857D01*
X-229227Y741249D01*
X-229431Y740646D01*
X-229650Y740048D01*
X-229883Y739455D01*
X-230131Y738869D01*
X-230393Y738288D01*
X-230669Y737714D01*
X-230959Y737148D01*
X-231263Y736588D01*
X-231581Y736036D01*
X-231912Y735492D01*
X-232256Y734956D01*
X-232613Y734429D01*
X-232983Y733911D01*
X-233365Y733402D01*
X-233760Y732902D01*
X-234167Y732412D01*
X-234586Y731932D01*
X-235016Y731463D01*
X-235458Y731004D01*
X-235911Y730556D01*
X-236374Y730120D01*
X-236848Y729695D01*
X-237333Y729281D01*
X-237827Y728880D01*
X-238331Y728491D01*
X-238844Y728114D01*
X-239367Y727750D01*
X-239898Y727398D01*
X-240437Y727060D01*
X-240985Y726735D01*
X-241540Y726424D01*
X-242103Y726126D01*
X-242673Y725842D01*
X-243250Y725573D01*
X-243833Y725317D01*
X-244423Y725076D01*
X-245018Y724849D01*
X-245618Y724636D01*
X-246223Y724439D01*
X-246280Y724622D01*
X-245679Y724818D01*
X-245083Y725029D01*
X-244493Y725254D01*
X-243908Y725494D01*
X-243329Y725748D01*
X-242756Y726016D01*
X-242190Y726297D01*
X-241632Y726593D01*
X-241080Y726902D01*
X-240537Y727225D01*
X-240001Y727560D01*
X-239474Y727909D01*
X-238955Y728270D01*
X-238446Y728644D01*
X-237946Y729031D01*
X-237455Y729429D01*
X-236974Y729840D01*
X-236504Y730262D01*
X-236044Y730695D01*
X-235594Y731139D01*
X-235156Y731595D01*
X-234729Y732061D01*
X-234313Y732537D01*
X-233909Y733023D01*
X-233517Y733519D01*
X-233138Y734024D01*
X-232771Y734539D01*
X-232416Y735062D01*
X-232074Y735594D01*
X-231746Y736134D01*
X-231431Y736682D01*
X-231129Y737237D01*
X-230841Y737800D01*
X-230567Y738369D01*
X-230307Y738945D01*
X-230061Y739528D01*
X-229829Y740116D01*
X-229612Y740709D01*
X-229409Y741308D01*
X-229221Y741911D01*
X-229048Y742519D01*
X-228890Y743131D01*
X-228746Y743747D01*
X-228618Y744366D01*
X-228505Y744988D01*
X-228407Y745612D01*
X-228325Y746239D01*
X-228258Y746867D01*
X-228206Y747497D01*
X-228170Y748128D01*
X-228149Y748760D01*
X-228143Y749392D01*
X-228153Y750024D01*
X-228179Y750656D01*
X-228219Y751286D01*
X-228276Y751916D01*
X-228347Y752544D01*
X-228434Y753170D01*
X-228536Y753794D01*
X-228654Y754415D01*
X-228787Y755033D01*
X-228934Y755647D01*
X-229097Y756258D01*
X-229274Y756865D01*
X-229467Y757467D01*
X-229674Y758064D01*
X-229895Y758656D01*
X-230131Y759243D01*
X-230381Y759823D01*
X-230645Y760397D01*
X-230924Y760965D01*
X-231216Y761525D01*
X-231521Y762079D01*
X-231840Y762624D01*
X-232173Y763162D01*
X-232518Y763691D01*
X-232876Y764212D01*
X-233247Y764724D01*
X-233630Y765227D01*
X-275726Y766296D02*
X-274290Y765164D01*
X-274672Y764664D01*
X-275041Y764154D01*
X-275398Y763635D01*
X-275742Y763108D01*
X-276073Y762572D01*
X-276391Y762029D01*
X-276695Y761478D01*
X-276986Y760919D01*
X-277263Y760354D01*
X-277527Y759782D01*
X-277776Y759204D01*
X-278011Y758620D01*
X-278231Y758030D01*
X-278437Y757435D01*
X-278629Y756835D01*
X-278806Y756231D01*
X-278968Y755623D01*
X-279115Y755011D01*
X-279247Y754395D01*
X-279364Y753776D01*
X-279466Y753155D01*
X-279552Y752532D01*
X-279624Y751906D01*
X-279680Y751279D01*
X-279721Y750651D01*
X-279746Y750022D01*
X-279756Y749392D01*
X-279750Y748762D01*
X-279730Y748133D01*
X-279693Y747505D01*
X-279642Y746877D01*
X-279575Y746251D01*
X-279493Y745627D01*
X-279395Y745005D01*
X-279283Y744385D01*
X-279155Y743769D01*
X-279012Y743156D01*
X-278855Y742546D01*
X-278682Y741941D01*
X-278495Y741340D01*
X-278293Y740743D01*
X-278077Y740152D01*
X-277846Y739566D01*
X-277601Y738986D01*
X-277342Y738413D01*
X-277069Y737845D01*
X-276782Y737285D01*
X-276481Y736732D01*
X-276167Y736186D01*
X-275840Y735648D01*
X-275500Y735118D01*
X-275147Y734597D01*
X-274781Y734084D01*
X-274403Y733581D01*
X-274013Y733087D01*
X-273610Y732603D01*
X-273196Y732128D01*
X-272771Y731664D01*
X-272334Y731211D01*
X-271887Y730768D01*
X-271428Y730336D01*
X-270960Y729916D01*
X-270481Y729507D01*
X-269992Y729110D01*
X-269494Y728725D01*
X-268986Y728353D01*
X-268470Y727993D01*
X-267945Y727645D01*
X-267411Y727311D01*
X-266870Y726990D01*
X-266320Y726682D01*
X-265764Y726388D01*
X-265200Y726107D01*
X-264630Y725840D01*
X-264054Y725587D01*
X-263471Y725349D01*
X-262883Y725124D01*
X-262289Y724914D01*
X-261691Y724719D01*
X-262229Y722972D01*
X-262230Y722971D01*
X-262871Y723180D01*
X-263507Y723405D01*
X-264137Y723645D01*
X-264762Y723901D01*
X-265379Y724171D01*
X-265990Y724457D01*
X-266594Y724758D01*
X-267190Y725073D01*
X-267779Y725403D01*
X-268359Y725747D01*
X-268930Y726105D01*
X-269493Y726477D01*
X-270046Y726862D01*
X-270590Y727262D01*
X-271124Y727674D01*
X-271648Y728099D01*
X-272161Y728537D01*
X-272663Y728987D01*
X-273154Y729449D01*
X-273634Y729924D01*
X-274102Y730409D01*
X-274557Y730906D01*
X-275001Y731415D01*
X-275432Y731933D01*
X-275850Y732463D01*
X-276255Y733002D01*
X-276647Y733551D01*
X-277026Y734109D01*
X-277390Y734677D01*
X-277741Y735253D01*
X-278077Y735838D01*
X-278399Y736430D01*
X-278706Y737031D01*
X-278999Y737638D01*
X-279276Y738253D01*
X-279539Y738874D01*
X-279786Y739502D01*
X-280018Y740135D01*
X-280234Y740774D01*
X-280435Y741418D01*
X-280620Y742067D01*
X-280789Y742720D01*
X-280942Y743377D01*
X-281078Y744037D01*
X-281199Y744701D01*
X-281303Y745367D01*
X-281391Y746036D01*
X-281463Y746707D01*
X-281518Y747379D01*
X-281557Y748052D01*
X-281579Y748726D01*
X-281585Y749401D01*
X-281574Y750075D01*
X-281547Y750749D01*
X-281503Y751422D01*
X-281443Y752094D01*
X-281367Y752764D01*
X-281274Y753432D01*
X-281165Y754098D01*
X-281039Y754761D01*
X-280898Y755420D01*
X-280740Y756076D01*
X-280566Y756728D01*
X-280377Y757375D01*
X-280171Y758017D01*
X-279950Y758655D01*
X-279714Y759286D01*
X-279462Y759912D01*
X-279195Y760531D01*
X-278913Y761144D01*
X-278616Y761750D01*
X-278304Y762348D01*
X-277978Y762938D01*
X-277637Y763520D01*
X-277282Y764094D01*
X-276914Y764659D01*
X-276531Y765214D01*
X-276136Y765760D01*
X-275727Y766297D01*
X-275576Y766178D01*
X-275982Y765645D01*
X-276375Y765103D01*
X-276755Y764551D01*
X-277121Y763990D01*
X-277473Y763421D01*
X-277811Y762843D01*
X-278135Y762256D01*
X-278445Y761662D01*
X-278740Y761061D01*
X-279020Y760453D01*
X-279285Y759838D01*
X-279535Y759216D01*
X-279770Y758589D01*
X-279989Y757956D01*
X-280193Y757318D01*
X-280381Y756675D01*
X-280554Y756028D01*
X-280710Y755377D01*
X-280851Y754722D01*
X-280976Y754064D01*
X-281084Y753403D01*
X-281176Y752740D01*
X-281252Y752074D01*
X-281312Y751407D01*
X-281355Y750739D01*
X-281382Y750070D01*
X-281393Y749400D01*
X-281387Y748730D01*
X-281365Y748061D01*
X-281326Y747392D01*
X-281272Y746725D01*
X-281201Y746059D01*
X-281113Y745395D01*
X-281010Y744733D01*
X-280890Y744074D01*
X-280754Y743418D01*
X-280602Y742766D01*
X-280435Y742117D01*
X-280251Y741473D01*
X-280052Y740834D01*
X-279837Y740199D01*
X-279607Y739570D01*
X-279361Y738947D01*
X-279101Y738330D01*
X-278825Y737720D01*
X-278534Y737116D01*
X-278229Y736520D01*
X-277909Y735931D01*
X-277575Y735351D01*
X-277227Y734779D01*
X-276865Y734215D01*
X-276490Y733661D01*
X-276101Y733115D01*
X-275698Y732580D01*
X-275283Y732054D01*
X-274855Y731539D01*
X-274415Y731035D01*
X-273962Y730541D01*
X-273497Y730059D01*
X-273021Y729588D01*
X-272533Y729129D01*
X-272035Y728681D01*
X-271525Y728247D01*
X-271005Y727825D01*
X-270475Y727415D01*
X-269935Y727019D01*
X-269386Y726636D01*
X-268827Y726267D01*
X-268259Y725911D01*
X-267683Y725569D01*
X-267099Y725242D01*
X-266507Y724929D01*
X-265907Y724630D01*
X-265301Y724347D01*
X-264687Y724078D01*
X-264067Y723824D01*
X-263441Y723586D01*
X-262810Y723362D01*
X-262173Y723155D01*
X-262117Y723338D01*
X-262749Y723544D01*
X-263376Y723766D01*
X-263997Y724003D01*
X-264613Y724255D01*
X-265222Y724522D01*
X-265824Y724804D01*
X-266420Y725100D01*
X-267008Y725411D01*
X-267588Y725736D01*
X-268160Y726075D01*
X-268723Y726428D01*
X-269278Y726795D01*
X-269824Y727175D01*
X-270360Y727569D01*
X-270886Y727975D01*
X-271403Y728395D01*
X-271909Y728826D01*
X-272404Y729270D01*
X-272888Y729726D01*
X-273361Y730194D01*
X-273822Y730673D01*
X-274272Y731163D01*
X-274709Y731664D01*
X-275134Y732176D01*
X-275546Y732697D01*
X-275946Y733229D01*
X-276332Y733770D01*
X-276705Y734321D01*
X-277065Y734881D01*
X-277410Y735449D01*
X-277742Y736025D01*
X-278059Y736610D01*
X-278362Y737202D01*
X-278651Y737801D01*
X-278925Y738407D01*
X-279184Y739020D01*
X-279427Y739638D01*
X-279656Y740263D01*
X-279869Y740893D01*
X-280067Y741528D01*
X-280249Y742167D01*
X-280416Y742811D01*
X-280566Y743459D01*
X-280701Y744110D01*
X-280820Y744765D01*
X-280923Y745422D01*
X-281010Y746081D01*
X-281080Y746742D01*
X-281135Y747405D01*
X-281173Y748069D01*
X-281195Y748734D01*
X-281201Y749399D01*
X-281190Y750064D01*
X-281163Y750728D01*
X-281120Y751392D01*
X-281061Y752055D01*
X-280986Y752715D01*
X-280894Y753374D01*
X-280787Y754030D01*
X-280663Y754684D01*
X-280523Y755334D01*
X-280368Y755981D01*
X-280197Y756623D01*
X-280010Y757262D01*
X-279807Y757895D01*
X-279589Y758523D01*
X-279356Y759146D01*
X-279108Y759763D01*
X-278845Y760374D01*
X-278567Y760978D01*
X-278274Y761575D01*
X-277966Y762165D01*
X-277645Y762747D01*
X-277309Y763321D01*
X-276959Y763887D01*
X-276596Y764444D01*
X-276219Y764992D01*
X-275828Y765530D01*
X-275425Y766059D01*
X-275274Y765940D01*
X-275675Y765415D01*
X-276062Y764880D01*
X-276436Y764336D01*
X-276797Y763783D01*
X-277145Y763222D01*
X-277478Y762652D01*
X-277797Y762074D01*
X-278103Y761488D01*
X-278393Y760895D01*
X-278670Y760295D01*
X-278931Y759689D01*
X-279178Y759076D01*
X-279409Y758458D01*
X-279625Y757834D01*
X-279826Y757205D01*
X-280012Y756571D01*
X-280182Y755933D01*
X-280336Y755291D01*
X-280475Y754645D01*
X-280598Y753997D01*
X-280704Y753345D01*
X-280795Y752691D01*
X-280870Y752035D01*
X-280929Y751377D01*
X-280972Y750718D01*
X-280998Y750058D01*
X-281009Y749398D01*
X-281003Y748738D01*
X-280981Y748078D01*
X-280943Y747418D01*
X-280889Y746760D01*
X-280819Y746104D01*
X-280733Y745449D01*
X-280631Y744797D01*
X-280513Y744147D01*
X-280379Y743500D01*
X-280229Y742857D01*
X-280064Y742218D01*
X-279883Y741583D01*
X-279687Y740952D01*
X-279475Y740327D01*
X-279248Y739707D01*
X-279006Y739092D01*
X-278749Y738484D01*
X-278477Y737882D01*
X-278190Y737287D01*
X-277890Y736699D01*
X-277574Y736119D01*
X-277245Y735547D01*
X-276902Y734983D01*
X-276545Y734427D01*
X-276175Y733880D01*
X-275791Y733343D01*
X-275394Y732815D01*
X-274985Y732297D01*
X-274563Y731789D01*
X-274129Y731291D01*
X-273683Y730805D01*
X-273225Y730329D01*
X-272755Y729865D01*
X-272274Y729412D01*
X-271783Y728971D01*
X-271280Y728542D01*
X-270768Y728126D01*
X-270245Y727723D01*
X-269713Y727332D01*
X-269171Y726954D01*
X-268620Y726590D01*
X-268060Y726239D01*
X-267492Y725903D01*
X-266916Y725580D01*
X-266333Y725271D01*
X-265742Y724977D01*
X-265143Y724697D01*
X-264539Y724432D01*
X-263927Y724182D01*
X-263310Y723946D01*
X-262688Y723726D01*
X-262060Y723522D01*
X-262003Y723705D01*
X-262627Y723908D01*
X-263245Y724127D01*
X-263858Y724360D01*
X-264464Y724609D01*
X-265065Y724872D01*
X-265659Y725150D01*
X-266246Y725442D01*
X-266825Y725749D01*
X-267397Y726069D01*
X-267961Y726404D01*
X-268517Y726752D01*
X-269063Y727113D01*
X-269601Y727488D01*
X-270130Y727876D01*
X-270649Y728277D01*
X-271158Y728690D01*
X-271656Y729116D01*
X-272145Y729553D01*
X-272622Y730003D01*
X-273088Y730464D01*
X-273543Y730936D01*
X-273986Y731420D01*
X-274417Y731913D01*
X-274836Y732418D01*
X-275243Y732932D01*
X-275636Y733456D01*
X-276017Y733990D01*
X-276385Y734533D01*
X-276739Y735085D01*
X-277080Y735645D01*
X-277407Y736213D01*
X-277720Y736789D01*
X-278019Y737373D01*
X-278303Y737963D01*
X-278573Y738561D01*
X-278828Y739165D01*
X-279068Y739775D01*
X-279294Y740391D01*
X-279504Y741012D01*
X-279699Y741638D01*
X-279879Y742268D01*
X-280043Y742903D01*
X-280191Y743541D01*
X-280324Y744183D01*
X-280442Y744829D01*
X-280543Y745476D01*
X-280629Y746126D01*
X-280698Y746778D01*
X-280752Y747432D01*
X-280790Y748086D01*
X-280811Y748742D01*
X-280817Y749397D01*
X-280806Y750053D01*
X-280780Y750708D01*
X-280738Y751362D01*
X-280679Y752015D01*
X-280605Y752666D01*
X-280515Y753316D01*
X-280409Y753963D01*
X-280287Y754607D01*
X-280149Y755248D01*
X-279996Y755886D01*
X-279827Y756519D01*
X-279643Y757148D01*
X-279443Y757773D01*
X-279229Y758392D01*
X-278999Y759006D01*
X-278754Y759615D01*
X-278494Y760217D01*
X-278220Y760812D01*
X-277932Y761401D01*
X-277629Y761982D01*
X-277311Y762556D01*
X-276980Y763122D01*
X-276636Y763680D01*
X-276277Y764229D01*
X-275906Y764769D01*
X-275521Y765300D01*
X-275123Y765821D01*
X-274973Y765702D01*
X-275367Y765185D01*
X-275749Y764658D01*
X-276118Y764121D01*
X-276474Y763576D01*
X-276816Y763023D01*
X-277145Y762461D01*
X-277460Y761891D01*
X-277760Y761314D01*
X-278047Y760729D01*
X-278319Y760138D01*
X-278577Y759540D01*
X-278820Y758936D01*
X-279048Y758327D01*
X-279261Y757712D01*
X-279459Y757092D01*
X-279642Y756467D01*
X-279810Y755838D01*
X-279962Y755205D01*
X-280098Y754569D01*
X-280219Y753929D01*
X-280325Y753287D01*
X-280414Y752642D01*
X-280488Y751995D01*
X-280546Y751347D01*
X-280588Y750697D01*
X-280615Y750047D01*
X-280625Y749396D01*
X-280619Y748745D01*
X-280598Y748095D01*
X-280560Y747445D01*
X-280507Y746796D01*
X-280438Y746149D01*
X-280353Y745504D01*
X-280252Y744860D01*
X-280136Y744220D01*
X-280004Y743583D01*
X-279856Y742949D01*
X-279693Y742318D01*
X-279515Y741692D01*
X-279321Y741071D01*
X-279113Y740454D01*
X-278889Y739843D01*
X-278650Y739238D01*
X-278397Y738638D01*
X-278129Y738045D01*
X-277847Y737458D01*
X-277550Y736879D01*
X-277239Y736307D01*
X-276915Y735743D01*
X-276577Y735186D01*
X-276225Y734639D01*
X-275860Y734100D01*
X-275482Y733570D01*
X-275091Y733050D01*
X-274687Y732539D01*
X-274271Y732038D01*
X-273843Y731548D01*
X-273403Y731068D01*
X-272952Y730599D01*
X-272489Y730141D01*
X-272015Y729695D01*
X-271530Y729261D01*
X-271035Y728838D01*
X-270530Y728428D01*
X-270015Y728030D01*
X-269490Y727645D01*
X-268956Y727273D01*
X-268413Y726913D01*
X-267861Y726568D01*
X-267302Y726236D01*
X-266734Y725918D01*
X-266158Y725613D01*
X-265576Y725323D01*
X-264986Y725047D01*
X-264390Y724786D01*
X-263788Y724539D01*
X-263179Y724307D01*
X-262566Y724090D01*
X-261947Y723889D01*
X-261890Y724072D01*
X-262505Y724272D01*
X-263114Y724488D01*
X-263718Y724718D01*
X-264316Y724963D01*
X-264907Y725222D01*
X-265493Y725496D01*
X-266071Y725784D01*
X-266642Y726086D01*
X-267206Y726402D01*
X-267762Y726732D01*
X-268310Y727075D01*
X-268849Y727432D01*
X-269379Y727801D01*
X-269900Y728184D01*
X-270411Y728579D01*
X-270913Y728986D01*
X-271404Y729405D01*
X-271885Y729837D01*
X-272356Y730280D01*
X-272815Y730734D01*
X-273264Y731200D01*
X-273700Y731676D01*
X-274125Y732163D01*
X-274538Y732660D01*
X-274939Y733167D01*
X-275327Y733684D01*
X-275702Y734210D01*
X-276065Y734745D01*
X-276414Y735288D01*
X-276750Y735841D01*
X-277072Y736401D01*
X-277380Y736969D01*
X-277675Y737544D01*
X-277955Y738126D01*
X-278221Y738715D01*
X-278473Y739310D01*
X-278709Y739911D01*
X-278932Y740518D01*
X-279139Y741130D01*
X-279331Y741747D01*
X-279508Y742369D01*
X-279670Y742994D01*
X-279816Y743624D01*
X-279947Y744257D01*
X-280063Y744892D01*
X-280163Y745531D01*
X-280247Y746171D01*
X-280316Y746814D01*
X-280369Y747458D01*
X-280406Y748103D01*
X-280427Y748749D01*
X-280433Y749395D01*
X-280423Y750041D01*
X-280397Y750687D01*
X-280355Y751332D01*
X-280297Y751976D01*
X-280224Y752618D01*
X-280135Y753258D01*
X-280030Y753895D01*
X-279910Y754530D01*
X-279775Y755162D01*
X-279624Y755790D01*
X-279457Y756415D01*
X-279276Y757035D01*
X-279079Y757651D01*
X-278868Y758261D01*
X-278641Y758866D01*
X-278400Y759466D01*
X-278144Y760059D01*
X-277874Y760646D01*
X-277589Y761227D01*
X-277291Y761800D01*
X-276978Y762365D01*
X-276652Y762923D01*
X-276312Y763473D01*
X-275959Y764014D01*
X-275593Y764546D01*
X-275214Y765070D01*
X-274822Y765584D01*
X-274671Y765465D01*
X-275060Y764955D01*
X-275436Y764435D01*
X-275800Y763907D01*
X-276151Y763369D01*
X-276488Y762824D01*
X-276812Y762270D01*
X-277122Y761708D01*
X-277418Y761139D01*
X-277701Y760563D01*
X-277969Y759981D01*
X-278223Y759392D01*
X-278462Y758797D01*
X-278687Y758196D01*
X-278897Y757590D01*
X-279092Y756979D01*
X-279273Y756363D01*
X-279438Y755743D01*
X-279588Y755119D01*
X-279722Y754492D01*
X-279841Y753862D01*
X-279945Y753229D01*
X-280034Y752593D01*
X-280106Y751956D01*
X-280163Y751317D01*
X-280205Y750677D01*
X-280231Y750036D01*
X-280241Y749394D01*
X-280235Y748753D01*
X-280214Y748112D01*
X-280177Y747471D01*
X-280125Y746832D01*
X-280057Y746194D01*
X-279973Y745558D01*
X-279874Y744924D01*
X-279759Y744293D01*
X-279629Y743665D01*
X-279483Y743040D01*
X-279323Y742419D01*
X-279147Y741802D01*
X-278956Y741190D01*
X-278751Y740582D01*
X-278530Y739980D01*
X-278295Y739383D01*
X-278045Y738792D01*
X-277781Y738207D01*
X-277503Y737629D01*
X-277211Y737058D01*
X-276904Y736494D01*
X-276584Y735938D01*
X-276251Y735390D01*
X-275904Y734851D01*
X-275545Y734319D01*
X-275172Y733797D01*
X-274787Y733284D01*
X-274389Y732781D01*
X-273979Y732288D01*
X-273557Y731804D01*
X-273124Y731331D01*
X-272679Y730869D01*
X-272223Y730418D01*
X-271756Y729978D01*
X-271278Y729550D01*
X-270790Y729134D01*
X-270292Y728729D01*
X-269785Y728337D01*
X-269267Y727958D01*
X-268741Y727591D01*
X-268206Y727237D01*
X-267662Y726896D01*
X-267111Y726569D01*
X-266551Y726255D01*
X-265984Y725955D01*
X-265410Y725669D01*
X-264829Y725398D01*
X-264241Y725140D01*
X-263648Y724897D01*
X-263048Y724668D01*
X-262443Y724455D01*
X-261834Y724256D01*
X-261777Y724439D01*
X-262382Y724637D01*
X-262983Y724849D01*
X-263578Y725076D01*
X-264167Y725317D01*
X-264750Y725573D01*
X-265327Y725843D01*
X-265897Y726126D01*
X-266460Y726424D01*
X-267015Y726736D01*
X-267563Y727060D01*
X-268103Y727399D01*
X-268634Y727750D01*
X-269156Y728114D01*
X-269669Y728491D01*
X-270173Y728880D01*
X-270668Y729282D01*
X-271152Y729695D01*
X-271626Y730120D01*
X-272090Y730557D01*
X-272542Y731004D01*
X-272984Y731463D01*
X-273414Y731933D01*
X-273833Y732412D01*
X-274240Y732902D01*
X-274635Y733402D01*
X-275017Y733911D01*
X-275387Y734429D01*
X-275744Y734956D01*
X-276088Y735492D01*
X-276419Y736036D01*
X-276737Y736588D01*
X-277041Y737148D01*
X-277331Y737715D01*
X-277607Y738289D01*
X-277869Y738869D01*
X-278117Y739455D01*
X-278351Y740048D01*
X-278569Y740646D01*
X-278774Y741249D01*
X-278963Y741857D01*
X-279137Y742469D01*
X-279297Y743086D01*
X-279441Y743706D01*
X-279570Y744330D01*
X-279684Y744956D01*
X-279783Y745585D01*
X-279866Y746217D01*
X-279934Y746850D01*
X-279986Y747484D01*
X-280022Y748120D01*
X-280043Y748757D01*
X-280049Y749393D01*
X-280039Y750030D01*
X-280013Y750666D01*
X-279972Y751302D01*
X-279915Y751936D01*
X-279843Y752569D01*
X-279755Y753200D01*
X-279652Y753828D01*
X-279534Y754454D01*
X-279401Y755076D01*
X-279252Y755695D01*
X-279088Y756311D01*
X-278909Y756922D01*
X-278715Y757528D01*
X-278507Y758130D01*
X-278284Y758727D01*
X-278046Y759317D01*
X-277794Y759902D01*
X-277528Y760481D01*
X-277247Y761052D01*
X-276953Y761617D01*
X-276645Y762174D01*
X-276324Y762724D01*
X-275989Y763266D01*
X-275641Y763799D01*
X-275280Y764324D01*
X-274906Y764839D01*
X-274520Y765346D01*
X-274369Y765227D01*
X-274753Y764724D01*
X-275124Y764212D01*
X-275482Y763692D01*
X-275827Y763162D01*
X-276159Y762625D01*
X-276478Y762079D01*
X-276784Y761526D01*
X-277076Y760965D01*
X-277354Y760398D01*
X-277619Y759823D01*
X-277869Y759243D01*
X-278105Y758657D01*
X-278326Y758065D01*
X-278533Y757467D01*
X-278726Y756865D01*
X-278903Y756259D01*
X-279066Y755648D01*
X-279213Y755033D01*
X-279346Y754415D01*
X-279463Y753794D01*
X-279566Y753170D01*
X-279653Y752544D01*
X-279724Y751916D01*
X-279781Y751287D01*
X-279821Y750656D01*
X-279847Y750024D01*
X-279857Y749393D01*
X-279851Y748760D01*
X-279830Y748129D01*
X-279794Y747498D01*
X-279742Y746868D01*
X-279675Y746239D01*
X-279593Y745613D01*
X-279495Y744988D01*
X-279382Y744366D01*
X-279254Y743747D01*
X-279110Y743132D01*
X-278952Y742520D01*
X-278779Y741912D01*
X-278591Y741308D01*
X-278388Y740710D01*
X-278171Y740116D01*
X-277939Y739528D01*
X-277693Y738946D01*
X-277433Y738370D01*
X-277159Y737800D01*
X-276871Y737238D01*
X-276569Y736682D01*
X-276254Y736134D01*
X-275926Y735594D01*
X-275584Y735062D01*
X-275230Y734539D01*
X-274863Y734025D01*
X-274483Y733519D01*
X-274091Y733023D01*
X-273687Y732537D01*
X-273272Y732061D01*
X-272844Y731595D01*
X-272406Y731140D01*
X-271957Y730695D01*
X-271497Y730262D01*
X-271026Y729840D01*
X-270545Y729429D01*
X-270055Y729031D01*
X-269554Y728645D01*
X-269045Y728271D01*
X-268526Y727909D01*
X-267999Y727560D01*
X-267463Y727225D01*
X-266920Y726902D01*
X-266369Y726593D01*
X-265810Y726298D01*
X-265244Y726016D01*
X-264672Y725748D01*
X-264093Y725494D01*
X-263508Y725254D01*
X-262917Y725029D01*
X-262321Y724819D01*
X-261720Y724622D01*
D11*
X-274945Y765810D02*
X-233055Y765810D01*
X-231463Y751840D02*
X-227451Y751840D01*
X-251137Y751840D02*
X-256863Y751840D01*
X-276537Y751840D02*
X-280549Y751840D01*
D10*
X-260017Y767715D02*
X-260017Y772541D01*
X-261357Y772541D02*
X-258676Y772541D01*
X-255956Y772541D02*
X-255956Y767715D01*
X-254348Y769860D02*
X-255956Y772541D01*
X-254348Y769860D02*
X-252739Y772541D01*
X-252739Y767715D01*
X-249324Y767715D02*
X-249324Y772541D01*
X-247983Y772541D01*
X-247912Y772539D01*
X-247840Y772533D01*
X-247770Y772524D01*
X-247700Y772511D01*
X-247630Y772494D01*
X-247562Y772473D01*
X-247495Y772449D01*
X-247429Y772421D01*
X-247365Y772390D01*
X-247302Y772355D01*
X-247242Y772317D01*
X-247183Y772276D01*
X-247127Y772232D01*
X-247073Y772185D01*
X-247022Y772136D01*
X-246974Y772083D01*
X-246928Y772028D01*
X-246886Y771971D01*
X-246846Y771911D01*
X-246810Y771850D01*
X-246777Y771786D01*
X-246748Y771721D01*
X-246722Y771655D01*
X-246699Y771587D01*
X-246680Y771518D01*
X-246665Y771448D01*
X-246654Y771378D01*
X-246646Y771307D01*
X-246642Y771236D01*
X-246642Y771164D01*
X-246646Y771093D01*
X-246654Y771022D01*
X-246665Y770952D01*
X-246680Y770882D01*
X-246699Y770813D01*
X-246722Y770745D01*
X-246748Y770679D01*
X-246777Y770614D01*
X-246810Y770550D01*
X-246846Y770489D01*
X-246886Y770429D01*
X-246928Y770372D01*
X-246974Y770317D01*
X-247022Y770264D01*
X-247073Y770215D01*
X-247127Y770168D01*
X-247183Y770124D01*
X-247242Y770083D01*
X-247302Y770045D01*
X-247365Y770010D01*
X-247429Y769979D01*
X-247495Y769951D01*
X-247562Y769927D01*
X-247630Y769906D01*
X-247700Y769889D01*
X-247770Y769876D01*
X-247840Y769867D01*
X-247912Y769861D01*
X-247983Y769859D01*
X-247983Y769860D02*
X-249324Y769860D01*
M02*
