G04 EAGLE Gerber RS-274X export*
G75*
%MOMM*%
%FSLAX34Y34*%
%LPD*%
%INTop Copper*%
%IPPOS*%
%AMOC8*
5,1,8,0,0,1.08239X$1,22.5*%
G01*
%ADD10C,1.930400*%
%ADD11R,1.879600X1.879600*%
%ADD12C,1.879600*%
%ADD13C,1.400000*%
%ADD14C,0.152400*%
%ADD15C,0.756400*%


D10*
X508000Y355600D03*
X508000Y381000D03*
X508000Y406400D03*
X508000Y431800D03*
X508000Y457200D03*
X508000Y482600D03*
X508000Y508000D03*
X508000Y533400D03*
X508000Y584200D03*
X508000Y609600D03*
X508000Y635000D03*
X508000Y660400D03*
X508000Y685800D03*
X508000Y711200D03*
X25400Y711200D03*
X25400Y685800D03*
X25400Y660400D03*
X25400Y635000D03*
X25400Y609600D03*
X25400Y584200D03*
X25400Y558800D03*
X25400Y533400D03*
X25400Y492760D03*
X25400Y467360D03*
X25400Y441960D03*
X25400Y416560D03*
X25400Y391160D03*
X25400Y365760D03*
X25400Y340360D03*
X25400Y314960D03*
X25400Y289560D03*
X25400Y264160D03*
X229100Y712600D03*
X229100Y738000D03*
X254500Y712600D03*
X254500Y738000D03*
X279900Y712600D03*
X279900Y738000D03*
D11*
X924500Y188000D03*
D12*
X924500Y213400D03*
X924500Y238800D03*
X924500Y264200D03*
X924500Y289600D03*
X924500Y315000D03*
X924500Y340400D03*
X924500Y365800D03*
X924500Y391200D03*
X924500Y416600D03*
X924500Y442000D03*
X924500Y467400D03*
X924500Y492800D03*
X924500Y518200D03*
X924500Y543600D03*
X924500Y569000D03*
D13*
X392900Y813200D03*
X392900Y863200D03*
D12*
X546100Y787400D03*
X546100Y863600D03*
X800100Y571500D03*
X876300Y571500D03*
X812800Y723900D03*
X800100Y742950D03*
X787400Y723900D03*
D11*
X672950Y863600D03*
D12*
X672950Y838200D03*
X672950Y812800D03*
D14*
X547116Y786384D02*
X547116Y643128D01*
X513588Y609600D01*
X508000Y609600D01*
X547116Y786384D02*
X546100Y787400D01*
X672084Y813816D02*
X393192Y813816D01*
X392900Y813200D01*
X672084Y813816D02*
X672950Y812800D01*
X509016Y461772D02*
X509016Y457200D01*
X509016Y461772D02*
X527304Y480060D01*
X527304Y509016D01*
X530352Y512064D01*
X653796Y512064D01*
X655320Y510540D01*
X787908Y510540D01*
X790956Y507492D01*
X509016Y457200D02*
X508000Y457200D01*
D15*
X790956Y507492D03*
D14*
X800100Y742188D02*
X650748Y742188D01*
X524256Y615696D01*
X524256Y595884D01*
X513588Y585216D01*
X509016Y585216D01*
X800100Y742188D02*
X800100Y742950D01*
X509016Y585216D02*
X508000Y584200D01*
X923544Y569976D02*
X923544Y614172D01*
X813816Y723900D01*
X923544Y569976D02*
X924500Y569000D01*
X813816Y723900D02*
X812800Y723900D01*
X518160Y509016D02*
X509016Y509016D01*
X518160Y509016D02*
X527304Y518160D01*
X656844Y518160D01*
X658368Y516636D01*
X883920Y516636D01*
X920496Y480060D01*
X929640Y480060D01*
X938784Y489204D02*
X940308Y490728D01*
X938784Y489204D02*
X929640Y480060D01*
X940308Y490728D02*
X940308Y499872D01*
X943356Y502920D01*
X943356Y554736D01*
X929640Y568452D01*
X925068Y568452D01*
X509016Y509016D02*
X508000Y508000D01*
X924500Y569000D02*
X925068Y568452D01*
X925068Y294132D02*
X925068Y291084D01*
X925068Y294132D02*
X943356Y312420D01*
X943356Y484632D01*
X938784Y489204D01*
X925068Y291084D02*
X924500Y289600D01*
X545592Y864108D02*
X393192Y864108D01*
X392900Y863200D01*
X545592Y864108D02*
X546100Y863600D01*
X903732Y544068D02*
X923544Y544068D01*
X903732Y544068D02*
X876300Y571500D01*
X923544Y544068D02*
X924500Y543600D01*
X923544Y519684D02*
X659892Y519684D01*
X658368Y521208D01*
X545592Y521208D01*
X521208Y545592D01*
X42672Y545592D01*
X30480Y533400D01*
X25400Y533400D01*
X923544Y519684D02*
X924500Y518200D01*
X923544Y265176D02*
X754380Y265176D01*
X679704Y339852D01*
X493776Y339852D01*
X492252Y341376D01*
X492252Y399288D01*
X478536Y413004D01*
X269748Y413004D01*
X266700Y409956D01*
X41148Y409956D01*
X25908Y394716D01*
X25908Y391668D01*
X923544Y265176D02*
X924500Y264200D01*
X25908Y391668D02*
X25400Y391160D01*
X714756Y313944D02*
X923544Y313944D01*
X714756Y313944D02*
X682752Y345948D01*
X565404Y345948D01*
X524256Y387096D01*
X524256Y408432D01*
X513588Y419100D01*
X502920Y419100D01*
X499872Y416052D01*
X484632Y416052D01*
X481584Y419100D01*
X266700Y419100D01*
X263652Y416052D01*
X25908Y416052D01*
X923544Y313944D02*
X924500Y315000D01*
X25908Y416052D02*
X25400Y416560D01*
X925068Y493776D02*
X929640Y493776D01*
X940308Y504444D01*
X940308Y519684D01*
X929640Y530352D01*
X918972Y530352D01*
X911352Y522732D01*
X661416Y522732D01*
X659892Y524256D01*
X547116Y524256D01*
X522732Y548640D01*
X33528Y548640D01*
X30480Y545592D01*
X19812Y545592D01*
X9144Y534924D01*
X9144Y509016D01*
X25400Y492760D01*
X924500Y492800D02*
X925068Y493776D01*
X923544Y472440D02*
X923544Y467868D01*
X923544Y472440D02*
X882396Y513588D01*
X656844Y513588D01*
X655320Y515112D01*
X528828Y515112D01*
X524256Y510540D01*
X524256Y481584D01*
X512064Y469392D01*
X502920Y469392D01*
X455676Y422148D01*
X265176Y422148D01*
X262128Y419100D01*
X77724Y419100D01*
X30480Y466344D01*
X25908Y466344D01*
X923544Y467868D02*
X924500Y467400D01*
X25908Y466344D02*
X25400Y467360D01*
X925068Y441960D02*
X929640Y441960D01*
X940308Y431292D01*
X940308Y313944D01*
X929640Y303276D01*
X918972Y303276D01*
X911352Y310896D01*
X713232Y310896D01*
X681228Y342900D01*
X563880Y342900D01*
X513588Y393192D01*
X502920Y393192D01*
X480060Y416052D01*
X268224Y416052D01*
X265176Y413004D01*
X39624Y413004D01*
X30480Y403860D01*
X19812Y403860D01*
X9144Y414528D01*
X9144Y431292D01*
X19812Y441960D01*
X25400Y441960D01*
X924500Y442000D02*
X925068Y441960D01*
M02*
